<?xml version="1.0" encoding="iso-8859-1"?>
<!-- Generator: Adobe Illustrator 16.0.0, SVG Export Plug-In . SVG Version: 6.00 Build 0)  -->
<!DOCTYPE svg PUBLIC "-//W3C//DTD SVG 1.1//EN" "http://www.w3.org/Graphics/SVG/1.1/DTD/svg11.dtd">
<svg version="1.1" id="Capa_1" xmlns="http://www.w3.org/2000/svg" xmlns:xlink="http://www.w3.org/1999/xlink" x="0px" y="0px"
	 width="192.115px" height="192.115px" viewBox="0 0 192.115 192.115" style="enable-background:new 0 0 192.115 192.115;"
	 xml:space="preserve">
<g>
	<path d="M20.334,153.665c0.077,0,0.077-0.119,0-0.119"/>
	<path d="M173.801,157.993c0.177-7.164,0.597-14.241-0.419-21.23c0.727-3.173,0.191-5.921-1.023-9.076
		c-0.284-0.737-0.784-1.129-1.576-1.199c-2.615-0.234-5.256-0.152-7.883-0.028c1.449-4.98,1.863-12.318,0.509-17.21
		c1.686-0.176,2.968-0.344,4.823-0.629c0.772-0.119,1.041-0.994,0.934-1.645c-0.743-4.496-4.943-6.933-7.289-10.653
		c-1.217-1.932-2.402-3.658-4.299-4.61c0.254-2.57,0.334-5.1,0.361-7.686c0.006-0.512,0.037-1.025,0.068-1.538
		c0.609,0.116,1.26,0.131,1.816,0.19c0.824,0.089,1.703,0.111,2.574,0.054c0.847,0.042,1.653,0.006,2.287-0.24
		c1.573-0.609,2.312-2.509,1.012-3.831c-1.668-1.698-5.387-1.657-7.672-1.208c-0.035-0.286-0.058-0.573-0.121-0.857
		c-0.226-1.016-1.818-1.273-2.284-0.299c-2.029,4.241-0.956,10.186-0.341,14.879c-1.534,0.397-2.986,2.563-3.648,3.538
		c-3.322,4.896-5.812,10.238-9.332,15.039c-0.627,0.855,0.215,2.156,1.21,2.11c1.574-0.073,2.286-0.13,3.394-0.292
		c0.281,4.898,0.354,9.971,1.898,14.618c-4.753,0.04-9.471,0.518-14.209,0.111c-0.867-10.146-1.018-20.503-1.223-30.68
		c0.264-0.091,0.515-0.21,0.724-0.389c3.449-2.979,6.751-7.715,7.292-12.296c0.503-4.26-4.663-4.513-7.924-4.791
		c0.3-5.005,0.375-10.29-1.001-15.097c2.411-0.538,3.867-2.921,3.794-5.651c-0.09-3.385-2.746-6.231-5.727-7.632
		c-0.221-3.163-0.576-6.307-0.584-9.482c1.547,0.336,3.098,0.642,4.642,1.016c2.187,0.53,3.731-1.687,2.778-3.615
		c-3.447-6.983-9.061-12.567-13.506-18.909c0-0.002-0.002-0.002-0.002-0.002c0.694-2.21,1.157-4.58,1.496-6.976
		c0.693,0.084,1.392,0.141,2.053,0.196c2.779,0.233,5.51-0.228,8.252-0.615c1.361-0.192,1.5-2.287,0.375-2.866
		c-3.447-1.776-6.852-3.619-10.088-5.751c-0.002-0.236,0.013-0.486,0.009-0.719c-0.05-2.508-3.318-2.718-4.152-0.562
		c-2.094,5.416-0.817,11.852-1.667,17.532c-0.021,0.147,0.005,0.271,0.01,0.406c-4.748,5.652-9.045,11.776-14.166,17.072
		c-1.095,1.132-0.682,3.277,0.963,3.648c1.599,0.361,3.313,0.432,4.948,0.632c-0.555,3.253-0.886,6.338-0.157,9.584
		c-0.096,0.082-0.201,0.142-0.285,0.251c-2.283,2.956-4.9,6.86-2.842,10.569c0.267,0.482,0.844,1.03,1.344,1.257
		c2.24,1.018,1.9,2.464,1.701,4.862c-0.31,3.746-0.586,7.126,0.098,10.598c-1.859,0.182-3.737,0.719-5.438,1.326
		c-0.836,0.299-1.529,1.012-1.494,1.962c0.146,3.905,1.446,8.812,4.576,11.556c-0.019,0.099-0.092,0.179-0.097,0.281
		c-0.079,1.834-0.198,3.657-0.185,5.492c0.002,0.404-0.092,0.787-0.135,1.177c-0.306-0.307-0.597-0.636-0.867-0.918
		c-2.28-2.381-4.019-5.108-5.738-7.847c0.121-0.419,0.074-0.904-0.301-1.385c-0.561-0.718-1.207-1.332-1.857-1.94
		c-0.425-0.636-0.869-1.261-1.324-1.878c1.163-0.078,2.326-0.146,3.492-0.143c1.061-0.02,1.572-0.93,1.438-1.887
		c-0.522-3.705-7.308-10.988-11.277-12.21c0.094-1.609,0.281-3.21,0.438-4.814c0.995-0.034,1.888-0.311,2.973-0.585
		c1.82-0.46,3.641-0.82,5.437-1.375c2.186-0.674,1.913-3.386,0-4.16c-2.514-1.018-5.072-1.897-7.661-2.69
		c-0.052-0.66-0.165-1.313-0.384-1.956c-0.583-1.709-2.775-1.629-3.387,0c-0.888,2.363-0.679,5.085-0.869,7.586
		c-0.212,2.793-0.378,5.513-0.088,8.306c0.005,0.046,0.028,0.077,0.035,0.121c-3.767,2.328-6.096,9.964-8.609,12.351
		c-1.132,1.075-0.175,2.679,1.165,2.813c1.092,0.324,2.18,0.394,3.263,0.209c2.497-0.554-0.114,15.043-0.014,14.451
		c-0.7,4.125-0.73,8.447-0.371,12.624c-1.512,0.092-3.001,0.183-4.508,0.095c-1.266-4.712-3.755-9.416-6.474-13.368
		c-0.031-0.045-0.081-0.069-0.115-0.111c0.18-2.448,0.562-4.866,1.109-7.263c0.544-2.387,1.396-4.696,1.219-7.168
		c-0.124-1.736-2.732-2.875-3.606-0.977c-2.08,4.518-2.556,10.753-1.901,15.791c-3.263,3.581-6.184,7.655-7.691,12.289
		c-1.077,3.311,0.245,5.009,2.829,4.998c-0.564,3.226-1.206,6.435-1.462,9.702c-0.275,3.508,0.768,7.05,0.772,10.57
		c0.003,2.845-8.707,1.948-12.751,2.102c-0.686-3.43-1.37-11.529,1.498-10.921c1.21,0.257,2.212-0.532,2.299-1.751
		c0.324-4.526,0.727-10.033-0.723-14.572c1.256,0.205,2.513,0.362,3.825,0.467c1.639,0.129,2.298-1.752,1.718-2.994
		c-2.108-4.514-5.502-8.648-8.452-12.679c-1.601-2.187-3.821-5.183-6.672-5.852c0.407-2.003,0.617-4.068,0.915-6.108
		c1.209-0.195,2.39-0.633,3.602-0.933c1.89-0.467,3.728-1.08,5.458-1.983c1.095-0.572,1.007-2.2,0-2.795
		c-2.435-1.437-5.136-2.343-7.7-3.526c0.029-0.372,0.099-0.74,0.114-1.112c0.083-1.947-2.953-2.356-3.392-0.459
		c-1.111,4.802-2.95,11.883-1.067,16.885c-2.215,0.497-3.74,2.617-5.117,4.423c-3.508,4.604-6.652,9.129-11.184,12.875
		c-1.418,1.173-0.709,4,1.135,4.3c1.279,0.208,2.464,0.26,3.668,0.21c-0.71,1.912-0.983,4.205-1.183,6.027
		c-0.309,2.81-0.196,5.458,0.309,8.193c-0.778,0.978-0.43,2.577,0.953,3.062c0.871,0.306,1.929,0.388,2.963,0.278
		c-0.193,1.544,0.037,3.189,0.09,4.738c0.062,1.828,0.075,3.772,0.276,5.66c-1.871-0.385-4.003,0.015-5.935,0.008
		c-3.361-0.011-6.615,0.08-9.755,1.359c-0.963,0.393-1.156,1.537-0.615,2.179c-1.257,6.258-0.753,12.648-0.658,19.021
		c0.116,7.777-0.533,15.78,0.825,23.458c0.017,0.099,0.094,0.147,0.143,0.222c-0.002,0.276,0.18,0.508,0.467,0.604
		c3.152,4.925,17.771,0.979,22.846,1.425c12.214,1.074,26.881,2.485,38.939,0.013c0.037-0.009,0.059-0.032,0.095-0.041
		c0.71,0.007,1.423-0.366,1.535-1.13c1.368-9.329-0.725-21.947,8.449-27.779c7.52-4.78,15.895-1.893,18.98,6.129
		c2.384,6.198,0.224,13.429,1.351,19.901c0.104,0.597,0.538,0.898,1.033,1.064c0.157,0.432,0.467,0.815,1.079,0.874
		c10.48,1.006,21.137,0.376,31.68,1.208c8.582,0.677,17.471,0.592,25.895-1.315c1.162-0.263,1.623-1.386,1.494-2.407
		c0.527-0.255,0.937-0.755,0.943-1.447C174.11,176.527,173.571,167.285,173.801,157.993z M125.913,5.051
		c1.259,1.004,2.518,2.011,3.831,2.941c-0.246-0.014-0.492-0.028-0.738-0.041c-0.987-0.051-2.098-0.369-3.198-0.597
		C125.856,6.577,125.894,5.816,125.913,5.051z M115.345,187.134c3.004-15.041,0.584-35.892-19.529-31.851
		C81.302,158.2,78.47,173.916,79.711,186.65c-10.845,0.776-21.83,0.187-32.775,0.949c-6.874,0.479-19.795-3.381-26.165,0.235
		c1.055-6.426,0.722-12.987,0.815-19.488c0.105-7.289,1.151-14.631-0.152-21.824c2.618,0.084,5.235,0.201,7.85,0.368
		c2.737,0.175,6.252,1.169,8.26-1.11c0.26-0.297,0.42-0.688,0.446-1.081c0.96-1.763,1.124-3.701,1.199-5.801
		c0.086-2.387-0.032-6-1.108-8.328c0.359-0.816-0.045-1.885-1.01-2.183c-0.962-0.297-2.086-0.515-3.181-0.548
		c0.116-2.445,0.403-4.897,0.696-7.319c0.265-2.19,0.581-4.913-0.099-7.115c0.056-0.4-0.044-0.84-0.305-1.146
		c-0.461-0.542-0.965-0.949-1.49-1.312c3.436-4.4,11.122-13.958,11.818-13.646c2.684,1.202,4.59,5.139,6.21,7.473
		c1.268,1.827,2.537,3.66,3.867,5.445l-0.728-0.021c-0.61-0.104-1.102,0.103-1.466,0.436c-0.767,0.132-1.487,0.74-1.568,1.619
		c-0.425,4.59,0.523,9.696,1.038,14.427c-4.844,1.567-2.76,12.176-2.644,15.977c0.015,0.493,0.268,1.09,0.75,1.308
		c4.366,1.975,13.686,3.66,17.742,0.326c2.465-2.026,2.201-5.492,2.217-8.4c0.033-6.128,0.197-12.411-0.493-18.494
		c-0.04-0.351-0.195-0.649-0.39-0.919c0.052-0.789-0.332-1.563-1.286-1.726c-1.114-0.19-2.161-0.325-3.293-0.319
		c1.403-0.007,1.344-1.997,2.12-3.211c1.405-2.197,3.145-4.253,4.95-6.199c1.726,3.423,3.257,6.941,5.109,10.304
		c1.693,3.075,5.471,1.842,8.448,1.631c0.902,0.935,2.674,0.559,2.881-1.124c1.215-9.882-1.998-20.562,0.495-30.207
		c0.257-0.995-0.484-1.993-1.522-1.997c-3.764-0.015-3.725,1.375-1.662-2.033c0.863-1.425,4.452-8.42,6.981-6.326
		c2.683,2.222,4.539,5.575,6.983,8.101c-0.523,0.126-1.048,0.251-1.572,0.377c-0.507,0.041-0.758,0.387-0.865,0.768
		c-0.563,0.223-1.037,0.747-1.04,1.362c-0.022,3.984,2.732,7.95,5.008,11.01c2.05,2.757,4.585,6.461,7.947,7.675
		c2.379,0.859,4.017-1.469,4.504-3.431c0.717-2.875,0.145-5.749-0.351-8.598c-0.053-0.303-0.265-0.607-0.532-0.854
		c-1.178-2.77-2.984-5.656-3.394-8.675c1.604-0.13,3.198-0.122,4.819-0.274c2.483-0.234,2.986-3.031,1.496-4.278
		c-0.562-5.307-1.246-11.148-0.279-16.259c0.166-0.878-0.231-1.919-1.206-2.124c-4.87-1.026-0.714-6,0.532-7.777
		c0.197-0.28,0.266-0.546,0.283-0.802c0.031-0.097,0.111-0.155,0.125-0.263c0.479-3.99,1.006-7.825,0.687-11.848
		c-0.054-0.669-0.455-1.464-1.203-1.581c-0.827-0.129-1.94-0.472-3.067-0.847c3.711-4.717,7.224-9.618,11.029-14.237
		c3.161,4.407,6.211,8.811,8.85,13.533c-0.504-0.044-1.011-0.089-1.516-0.133c-1.794-0.479-2.824,1.403-2.34,2.726
		c-1.383,4.016-0.738,8.209-0.732,12.386c0.002,0.983,0.649,1.705,1.539,2.02c1.728,0.612,3.293,2.218,4.362,3.671
		c1.958,2.659-0.104,2.818-2.172,4.012c-0.489,0.282-0.627,0.895-0.481,1.408c-1.867,5.666,0.319,11.64-0.177,17.504
		c-0.069,0.817,0.636,1.684,1.416,1.861c3.481,0.788,6.741,0.05,3.688,4.286c-1.738,2.413-3.907,4.667-4.23,7.713
		c-0.021,0.195,0.006,0.364,0.034,0.532c-1.646,5.217,0.397,10.749,1.036,16.01c0.721,5.944-0.59,11.854,0.361,17.826
		c0.072,0.458,0.574,0.941,1.023,1.024c5.73,1.064,11.359,0.821,17.156,0.536c1.427-0.07,1.93-1.468,1.518-2.465
		c0.805-5.801-1.061-11.602-2.414-17.23c-0.119-0.494-0.615-0.854-1.115-0.849c-0.783,0.021-1.564-0.006-2.348-0.011
		c1.188-2.186,3.189-4.16,4.551-6.148c1.438-2.104,4.566-10.971,7.836-6.142c2.248,3.317,4.461,6.569,7.117,9.558
		c-0.876,0.108-1.751,0.217-2.626,0.325c-1.215,0.108-1.553,1.489-1.04,2.225c-2.598,4.148-2.633,10.788-1.806,15.338
		c0.938,5.154,5.007,5.861,9.663,5.622c0.145,1.06,0.421,2.074,0.703,3.091c-0.1,8.35,0.316,16.698,0.023,25.056
		c-0.32,9.143-1.199,18.461,0.553,27.486C152.247,187.617,133.759,186.044,115.345,187.134z"/>
	<path d="M126.914,63.568c-2.052-2.034-5.862-0.793-8.442-0.617c-1.363,0.093-1.732,1.562-1.104,2.379
		c-0.389,2.186-0.803,4.299-0.785,6.581c0.011,1.486,0,4.488,1.768,5.131c1.45,0.527,4.623,1.14,6.092,0.538
		c2.524-1.036,2.074-5.223,1.867-7.356c-0.07-0.726-1.156-0.984-1.345-0.182c-0.364,1.554,0.446,5.352-1.715,5.45
		c-1.008,0.045-4.002,0.281-4.257-0.535c-0.516-1.652-0.066-3.672,0.016-5.357c0.061-1.256,0.08-2.486,0.03-3.724
		c1.303,0.028,2.604,0.011,3.907,0.035c0.603,0.011,1.146,0.045,1.674,0.034c0.045,0.379,0.1,0.76,0.203,1.146
		c0.234,0.887,1.753,0.729,1.637-0.221c-0.055-0.445-0.045-0.886-0.043-1.326c0.087-0.041,0.17-0.056,0.258-0.105
		C127.343,65.063,127.453,64.102,126.914,63.568z"/>
</g>
<g>
</g>
<g>
</g>
<g>
</g>
<g>
</g>
<g>
</g>
<g>
</g>
<g>
</g>
<g>
</g>
<g>
</g>
<g>
</g>
<g>
</g>
<g>
</g>
<g>
</g>
<g>
</g>
<g>
</g>
</svg>
