<?xml version="1.0" ?><svg width="64px" height="64px" viewBox="0 0 64 64" style="enable-background:new 0 0 64 64;" version="1.1" xml:space="preserve" xmlns="http://www.w3.org/2000/svg" xmlns:xlink="http://www.w3.org/1999/xlink"><style type="text/css">
	.st0{fill:#FFEEA9;}
	.st1{fill:#D32436;}
	.st2{fill:#8DD1D3;}
	.st3{fill:#330D00;}
	.st4{fill:none;stroke:#330D00;stroke-linecap:round;stroke-linejoin:round;stroke-miterlimit:10;}
</style><g id="_x34_0-Id_Card"/><g id="_x33_9-Formula"/><g id="_x33_8-Elbow"/><g id="_x33_7-Diploma"/><g id="_x33_6-Laptop"/><g id="_x33_5-Brush"/><g id="_x33_4-Baseball"/><g id="_x33_3-Student"/><g id="_x33_2-Highlighter"/><g id="_x33_1-Ruler"/><g id="_x33_0-Caliper"/><g id="_x32_9-Ruler_Elbow"/><g id="_x32_8-Abacus"/><g id="_x32_7-Id_Card"/><g id="_x32_6-Eraser"/><g id="_x32_5-Pencil"/><g id="_x32_4-Ink"/><g id="_x32_3-Graduation_Cap"/><g id="_x32_2-_Sling_Bag"/><g id="_x32_1-Rugby_Ball"/><g id="_x32_0-Clock"/><g id="_x31_9-Certificate"/><g id="_x31_8-Idea"/><g id="_x31_7-Bookshelf"/><g id="_x31_6-Formula"/><g id="_x31_5-Bell"/><g id="_x31_4-Magnifying_Glass"/><g id="_x31_3-Calculator"/><g id="_x31_2-Eyeglasses"/><g id="_x31_1-Bus"/><g id="_x31_0-Trophy"><g><g><path class="st0" d="M49.7,1.1v22.1c0,8.2-5.6,15.1-13.2,17.1c-1.4,0.4-2.9,0.6-4.4,0.6c-1.5,0-3-0.2-4.4-0.6     c-7.6-2-13.2-8.9-13.2-17.1V1.1H49.7z"/></g><g><path class="st2" d="M45.2,62.9H18.8v-5.8c0-1.7,1.3-3,3-3h20.5c1.7,0,3,1.3,3,3V62.9z"/></g><g><path class="st1" d="M36.4,40.3v13.8h-8.8V40.3c1.4,0.4,2.9,0.6,4.4,0.6C33.5,40.8,35,40.6,36.4,40.3z"/></g><g><path class="st2" d="M58.5,5.5v8.8c0,4.9-4,8.8-8.8,8.8V5.5H58.5z"/></g><g><path class="st2" d="M14.3,5.5v17.7c-4.9,0-8.8-4-8.8-8.8V5.5H14.3z"/></g><g><path class="st3" d="M58.5,4.4h-7.7V1.1c0-0.6-0.5-1.1-1.1-1.1H14.3c-0.6,0-1.1,0.5-1.1,1.1v3.3H5.5c-0.6,0-1.1,0.5-1.1,1.1v8.8     c0,5.1,3.9,9.3,8.9,9.8C13.7,32,19,38.8,26.5,41.1V53h-1.1c-4.3,0-7.7,3.5-7.7,7.7v2.2c0,0.6,0.5,1.1,1.1,1.1h26.5     c0.6,0,1.1-0.5,1.1-1.1v-2.2c0-4.3-3.5-7.7-7.7-7.7h-1.1V41.1C45,38.8,50.3,32,50.7,24.2c5-0.5,8.9-4.7,8.9-9.8V5.5     C59.6,4.9,59.1,4.4,58.5,4.4z M6.6,14.3V6.6h6.6V22C9.5,21.5,6.6,18.2,6.6,14.3z M44.1,60.7v1.1H19.9v-1.1c0-3,2.5-5.5,5.5-5.5     h2.2h8.8h2.2C41.7,55.2,44.1,57.6,44.1,60.7z M28.7,53V41.6c0.2,0,0.4,0.1,0.7,0.1c0.2,0,0.4,0.1,0.6,0.1c0.7,0.1,1.4,0.1,2,0.1     c0,0,0,0,0.1,0s0,0,0.1,0c0.7,0,1.4-0.1,2-0.1c0.2,0,0.4,0,0.6-0.1c0.2,0,0.4,0,0.7-0.1V53H28.7z M36.1,39.2     c-2.8,0.7-5.5,0.7-8.3,0c-7.3-1.9-12.4-8.5-12.4-16V5.5V2.2h33.1v3.3v17.7C48.6,30.7,43.4,37.3,36.1,39.2z M57.4,14.3     c0,3.9-2.9,7.1-6.6,7.6V6.6h6.6V14.3z"/></g></g></g><g id="_x39_-Globe"/><g id="_x38_-Basket_Ball"/><g id="_x37_-Pen"/><g id="_x36_-Board"/><g id="_x35_-Bag"/><g id="_x34_-Exam"/><g id="_x33_-Book"/><g id="_x32_-Ruler"/><g id="_x31_-Building"/></svg>