<svg xmlns="http://www.w3.org/2000/svg" viewBox="0 0 500 500"><g id="freepik--background-complete--inject-140"><rect x="62.77" y="208.61" width="35.16" height="11.19" style="fill:#ebebeb"></rect><rect x="276.45" y="129.25" width="35.16" height="11.19" style="fill:#ebebeb"></rect><path d="M78.32,233.91c-5.86.1-20.63.35-26.29.42l-8.87,0h-.45v-.46l0-11.19v-.5h.5l17.58.07c4.37,0,13.2.13,17.58.2h.24v.23l-.23,11.19Zm0,0-.24-11.19.24.24c-4.39.06-13.2.16-17.58.19l-17.58.07.5-.5,0,11.19-.46-.45,8.71,0c5.57.06,20.68.31,26.45.41Z" style="fill:#ebebeb"></path><rect x="421.68" y="222.72" width="35.16" height="11.19" style="fill:#ebebeb"></rect><rect x="402.07" y="31.33" width="35.16" height="11.19" style="fill:#ebebeb"></rect><path d="M456.84,56.63c-5.86.1-20.63.35-26.29.41l-8.87,0h-.45v-.46l-.05-11.19v-.5h.5l17.58.07c4.38,0,13.2.13,17.58.19h.24v.24l-.24,11.19Zm0,0-.24-11.19.24.24c-4.39.06-13.19.15-17.58.19l-17.58.07.5-.5,0,11.19-.46-.46,8.71,0c5.58.07,20.69.32,26.45.42Z" style="fill:#ebebeb"></path><path d="M97.93,42.52c-5.86.1-20.63.35-26.29.41l-8.87,0h-.45v-.46l0-11.19v-.5h.5l17.58.07c4.38,0,13.2.13,17.58.19h.24v.24l-.24,11.19Zm0,0-.24-11.19.24.24c-4.39.06-13.2.15-17.58.19l-17.58.07.5-.5,0,11.19-.46-.46,8.71,0c5.57.06,20.68.31,26.45.41Z" style="fill:#ebebeb"></path><g style="opacity:0.1"><path d="M58.78,457.89c-.31-4.58-.48-9.17-.69-13.75s-.35-9.17-.51-13.76c-.26-9.17-.41-18.34-.52-27.51l0-1.59h1.74c7.79,0,15.58-.1,23.37,0s15.58.08,23.36.19,15.58.27,23.37.5c3.89.1,7.79.27,11.68.42s7.79.3,11.68.52c-3.89.23-7.78.38-11.68.53s-7.79.32-11.68.41c-7.79.24-15.58.39-23.37.5s-15.57.19-23.36.2-15.58,0-23.37-.05l1.72-1.59c-.1,9.17-.25,18.34-.51,27.51-.16,4.59-.27,9.17-.51,13.76S59.1,453.31,58.78,457.89Z"></path><path d="M162.31,402.87c.31,4.59.48,9.17.7,13.76s.35,9.17.5,13.75c.27,9.17.41,18.34.52,27.51l0,1.59h-1.74c-7.86,0-15.73.11-23.6,0s-15.74-.08-23.61-.19-15.73-.27-23.6-.51c-3.94-.09-7.87-.26-11.8-.41s-7.87-.3-11.81-.53c3.94-.22,7.87-.37,11.81-.52s7.86-.32,11.8-.42c7.87-.23,15.74-.38,23.6-.5s15.74-.18,23.61-.19,15.74,0,23.6.05l-1.71,1.58c.11-9.17.25-18.34.52-27.51.15-4.58.27-9.17.5-13.75S162,407.46,162.31,402.87Z"></path></g><g style="opacity:0.1"><path d="M72.2,447.52c-.24-5.71-.45-11.42-.54-17.14l-.17-8.56c-.08-2.86-.06-5.72-.09-8.57v-.74h.81l17.31-.09,17.31.1c5.77,0,11.54.17,17.31.25s11.54.27,17.31.48c-5.77.21-11.54.38-17.31.48s-11.54.24-17.31.24l-17.31.1L72.2,414l.8-.74c0,2.85,0,5.71-.09,8.57l-.17,8.56C72.64,436.1,72.43,441.81,72.2,447.52Z"></path><path d="M148.9,413.25c.24,5.71.44,11.42.54,17.13s.25,11.43.26,17.14v.73h-.8l-17.49.08-17.49-.09c-5.83,0-11.65-.17-17.48-.25s-11.66-.27-17.49-.48c5.83-.21,11.66-.39,17.49-.48s11.65-.25,17.48-.25l17.49-.1,17.49.09-.8.74c0-5.71.16-11.43.26-17.14S148.67,419,148.9,413.25Z"></path></g><g style="opacity:0.1"><path d="M211.64,447.52c-.24-5.71-.44-11.42-.54-17.14l-.17-8.56c-.08-2.86-.06-5.72-.09-8.57v-.74h.81l17.31-.09,17.31.1c5.77,0,11.54.17,17.31.25s11.54.27,17.31.48c-5.77.21-11.54.38-17.31.48S252,414,246.26,414l-17.31.1L211.64,414l.8-.74c0,2.85,0,5.71-.09,8.57l-.17,8.56C212.08,436.1,211.88,441.81,211.64,447.52Z"></path><path d="M288.34,413.25c.24,5.71.45,11.42.54,17.13s.26,11.43.26,17.14v.73h-.8l-17.49.08-17.48-.09c-5.83,0-11.66-.17-17.49-.25s-11.66-.27-17.49-.48c5.83-.21,11.66-.39,17.49-.48s11.66-.25,17.49-.25l17.48-.1,17.49.09-.79.74c0-5.71.15-11.43.26-17.14S288.11,419,288.34,413.25Z"></path></g><g style="opacity:0.1"><path d="M198.23,457.89c-.31-4.58-.48-9.17-.69-13.75s-.35-9.17-.51-13.76c-.26-9.17-.41-18.34-.52-27.51v-1.59h1.73c7.79,0,15.58-.1,23.37,0s15.58.08,23.37.19,15.57.27,23.36.5c3.89.1,7.79.27,11.68.42s7.79.3,11.68.52c-3.89.23-7.78.38-11.68.53s-7.79.32-11.68.41c-7.79.24-15.58.39-23.36.5s-15.58.19-23.37.2-15.58,0-23.37-.05l1.73-1.59c-.11,9.17-.26,18.34-.52,27.51-.16,4.59-.27,9.17-.51,13.76S198.55,453.31,198.23,457.89Z"></path><path d="M301.77,402.87c.31,4.59.48,9.17.69,13.76s.35,9.17.51,13.75c.26,9.17.41,18.34.52,27.51v1.59h-1.73c-7.87,0-15.74.11-23.61,0s-15.74-.08-23.61-.19-15.73-.27-23.6-.51c-3.93-.09-7.87-.26-11.8-.41s-7.87-.3-11.81-.53c3.94-.22,7.87-.37,11.81-.52s7.87-.32,11.8-.42c7.87-.23,15.74-.38,23.6-.5s15.74-.18,23.61-.19,15.74,0,23.61.05l-1.72,1.58c.11-9.17.26-18.34.52-27.51.15-4.58.27-9.17.5-13.75S301.46,407.46,301.77,402.87Z"></path></g><g style="opacity:0.1"><path d="M351.08,447.52c-.23-5.71-.44-11.42-.54-17.14l-.17-8.56c-.07-2.86-.06-5.72-.09-8.57v-.74h.8l17.31-.09,17.31.1c5.77,0,11.54.17,17.31.25s11.54.27,17.31.48c-5.77.21-11.54.38-17.31.48s-11.54.24-17.31.24l-17.31.1L351.08,414l.8-.74c0,2.85,0,5.71-.09,8.57l-.17,8.56C351.53,436.1,351.32,441.81,351.08,447.52Z"></path><path d="M427.78,413.25c.24,5.71.45,11.42.54,17.13s.26,11.43.26,17.14v.73h-.8l-17.48.08-17.49-.09c-5.83,0-11.66-.17-17.49-.25s-11.66-.27-17.49-.48c5.83-.21,11.66-.39,17.49-.48s11.66-.25,17.49-.25l17.49-.1,17.48.09-.79.74c0-5.71.15-11.43.26-17.14S427.55,419,427.78,413.25Z"></path></g><g style="opacity:0.1"><path d="M337.69,457.89c-.32-4.58-.49-9.17-.7-13.75s-.35-9.17-.51-13.76c-.26-9.17-.41-18.34-.52-27.51v-1.59h1.74c7.78,0,15.57-.1,23.36,0s15.58.08,23.37.19,15.57.27,23.36.5c3.9.1,7.79.27,11.68.42s7.79.3,11.69.52c-3.9.23-7.79.38-11.69.53s-7.78.32-11.68.41c-7.79.24-15.58.39-23.36.5s-15.58.19-23.37.2-15.58,0-23.36-.05l1.72-1.59c-.11,9.17-.26,18.34-.52,27.51-.16,4.59-.27,9.17-.51,13.76S338,453.31,337.69,457.89Z"></path><path d="M441.22,402.87c.31,4.59.48,9.17.69,13.76s.35,9.17.51,13.75c.26,9.17.41,18.34.52,27.51l0,1.59h-1.74c-7.87,0-15.74.11-23.61,0s-15.74-.08-23.6-.19-15.74-.27-23.61-.51c-3.93-.09-7.87-.26-11.8-.41s-7.87-.3-11.8-.53c3.93-.22,7.86-.37,11.8-.52s7.87-.32,11.8-.42c7.87-.23,15.74-.38,23.61-.5s15.73-.18,23.6-.19,15.74,0,23.61.05l-1.72,1.58c.11-9.17.26-18.34.52-27.51.15-4.58.27-9.17.5-13.75S440.91,407.46,441.22,402.87Z"></path></g></g><g id="freepik--Window--inject-140"><path d="M80.94,45.44v325.5H419.07V45.44ZM411.69,363.56H88.32V52.82H411.69Z" style="fill:#dbdbdb"></path><rect x="88.32" y="52.82" width="323.38" height="310.74" style="fill:#37474f"></rect><polygon points="263.33 148.45 264.16 150.13 266.01 150.4 264.67 151.71 264.99 153.55 263.33 152.68 261.67 153.55 261.99 151.71 260.65 150.4 262.5 150.13 263.33 148.45" style="fill:#fff"></polygon><polygon points="180.4 139.99 181.23 141.67 183.08 141.94 181.74 143.25 182.05 145.09 180.4 144.22 178.74 145.09 179.06 143.25 177.72 141.94 179.57 141.67 180.4 139.99" style="fill:#fff"></polygon><polygon points="333.67 156.48 334.5 158.16 336.35 158.43 335.01 159.73 335.32 161.57 333.67 160.7 332.01 161.57 332.33 159.73 330.99 158.43 332.84 158.16 333.67 156.48" style="fill:#fff"></polygon><polygon points="391.11 93.44 391.93 95.12 393.79 95.39 392.45 96.69 392.76 98.54 391.11 97.67 389.45 98.54 389.77 96.69 388.43 95.39 390.28 95.12 391.11 93.44" style="fill:#fff"></polygon><polygon points="161.28 90.93 162.11 92.61 163.96 92.88 162.62 94.19 162.94 96.03 161.28 95.16 159.62 96.03 159.94 94.19 158.6 92.88 160.45 92.61 161.28 90.93" style="fill:#fff"></polygon><polygon points="245.1 102.08 245.93 103.75 247.78 104.02 246.44 105.33 246.75 107.17 245.1 106.3 243.44 107.17 243.76 105.33 242.42 104.02 244.27 103.75 245.1 102.08" style="fill:#fff"></polygon><polygon points="204.88 219.56 205.39 220.59 206.53 220.76 205.71 221.56 205.9 222.71 204.88 222.17 203.85 222.71 204.05 221.56 203.22 220.76 204.37 220.59 204.88 219.56" style="fill:#fff"></polygon><polygon points="142.25 134.19 142.76 135.23 143.91 135.39 143.08 136.2 143.27 137.34 142.25 136.8 141.23 137.34 141.42 136.2 140.59 135.39 141.74 135.23 142.25 134.19" style="fill:#fff"></polygon><polygon points="398.51 140.26 399.02 141.29 400.17 141.46 399.34 142.27 399.54 143.41 398.51 142.87 397.49 143.41 397.69 142.27 396.86 141.46 398 141.29 398.51 140.26" style="fill:#fff"></polygon><polygon points="121.49 74.68 122 75.72 123.15 75.89 122.32 76.69 122.51 77.83 121.49 77.29 120.47 77.83 120.66 76.69 119.83 75.89 120.98 75.72 121.49 74.68" style="fill:#fff"></polygon><polygon points="317.42 118.16 317.93 119.2 319.08 119.37 318.25 120.17 318.45 121.31 317.42 120.78 316.4 121.31 316.59 120.17 315.77 119.37 316.91 119.2 317.42 118.16" style="fill:#fff"></polygon><polygon points="292.46 129.47 292.97 130.51 294.12 130.67 293.29 131.48 293.48 132.62 292.46 132.08 291.44 132.62 291.63 131.48 290.8 130.67 291.95 130.51 292.46 129.47" style="fill:#fff"></polygon><polygon points="280.26 188.5 280.77 189.54 281.92 189.7 281.09 190.51 281.29 191.65 280.26 191.11 279.24 191.65 279.43 190.51 278.61 189.7 279.75 189.54 280.26 188.5" style="fill:#fff"></polygon><polygon points="98.05 143.52 98.56 144.55 99.71 144.72 98.88 145.53 99.07 146.67 98.05 146.13 97.03 146.67 97.22 145.53 96.39 144.72 97.54 144.55 98.05 143.52" style="fill:#fff"></polygon><polygon points="110 115.01 110.51 116.05 111.66 116.22 110.83 117.02 111.02 118.16 110 117.63 108.97 118.16 109.17 117.02 108.34 116.22 109.49 116.05 110 115.01" style="fill:#fff"></polygon><polygon points="380.05 180.54 380.56 181.57 381.7 181.74 380.88 182.55 381.07 183.69 380.05 183.15 379.02 183.69 379.22 182.55 378.39 181.74 379.54 181.57 380.05 180.54" style="fill:#fff"></polygon><polygon points="280.26 68.48 280.77 69.52 281.92 69.68 281.09 70.49 281.29 71.63 280.26 71.09 279.24 71.63 279.43 70.49 278.61 69.68 279.75 69.52 280.26 68.48" style="fill:#fff"></polygon><polygon points="216.03 159.03 216.54 160.06 217.68 160.23 216.85 161.04 217.05 162.18 216.03 161.64 215 162.18 215.2 161.04 214.37 160.23 215.51 160.06 216.03 159.03" style="fill:#fff"></polygon><polygon points="187.02 73.11 187.54 74.14 188.68 74.31 187.85 75.12 188.05 76.26 187.02 75.72 186 76.26 186.2 75.12 185.37 74.31 186.51 74.14 187.02 73.11" style="fill:#fff"></polygon><polygon points="230.77 194.23 231.28 195.27 232.43 195.43 231.6 196.24 231.79 197.38 230.77 196.84 229.74 197.38 229.94 196.24 229.11 195.43 230.26 195.27 230.77 194.23" style="fill:#fff"></polygon><polygon points="315.77 178.09 316.28 179.13 317.42 179.3 316.59 180.1 316.79 181.25 315.77 180.71 314.74 181.25 314.94 180.1 314.11 179.3 315.25 179.13 315.77 178.09" style="fill:#fff"></polygon><polygon points="214.37 85.49 214.88 86.53 216.03 86.69 215.2 87.5 215.39 88.64 214.37 88.1 213.34 88.64 213.54 87.5 212.71 86.69 213.86 86.53 214.37 85.49" style="fill:#fff"></polygon><polygon points="203.22 129.47 203.73 130.51 204.88 130.67 204.05 131.48 204.25 132.62 203.22 132.08 202.2 132.62 202.39 131.48 201.57 130.67 202.71 130.51 203.22 129.47" style="fill:#fff"></polygon><path d="M327.53,115.51a27.73,27.73,0,1,0,30.21-40.83,25.94,25.94,0,1,1-30.21,40.83Z" style="fill:#fff"></path><rect x="158.01" y="147.55" width="36.78" height="216.01" style="fill:#263238"></rect><rect x="158.02" y="161.04" width="36.78" height="2.53" style="fill:#37474f"></rect><rect x="161.81" y="171.01" width="6.77" height="14.08" style="fill:#37474f"></rect><rect x="161.81" y="188.77" width="6.77" height="14.08" style="fill:#37474f"></rect><rect x="161.81" y="206.53" width="6.77" height="14.08" style="fill:#37474f"></rect><rect x="161.81" y="224.28" width="6.77" height="14.08" style="fill:#37474f"></rect><rect x="161.81" y="242.04" width="6.77" height="14.08" style="fill:#37474f"></rect><rect x="161.81" y="259.8" width="6.77" height="14.08" style="fill:#37474f"></rect><rect x="161.81" y="277.55" width="6.77" height="14.08" style="fill:#37474f"></rect><rect x="161.81" y="295.31" width="6.77" height="14.08" style="fill:#37474f"></rect><rect x="161.81" y="313.07" width="6.77" height="14.08" style="fill:#37474f"></rect><rect x="161.81" y="330.82" width="6.77" height="14.08" style="fill:#37474f"></rect><rect x="161.81" y="348.58" width="6.77" height="14.08" style="fill:#37474f"></rect><rect x="161.81" y="171.01" width="6.77" height="14.08" style="fill:#37474f"></rect><rect x="161.81" y="188.77" width="6.77" height="14.08" style="fill:#37474f"></rect><rect x="161.81" y="206.53" width="6.77" height="14.08" style="fill:#37474f"></rect><rect x="161.81" y="224.28" width="6.77" height="14.08" style="fill:#37474f"></rect><rect x="161.81" y="242.04" width="6.77" height="14.08" style="fill:#37474f"></rect><rect x="161.81" y="259.8" width="6.77" height="14.08" style="fill:#37474f"></rect><rect x="161.81" y="277.55" width="6.77" height="14.08" style="fill:#37474f"></rect><rect x="161.81" y="295.31" width="6.77" height="14.08" style="fill:#37474f"></rect><rect x="161.81" y="313.07" width="6.77" height="14.08" style="fill:#37474f"></rect><rect x="161.81" y="330.82" width="6.77" height="14.08" style="fill:#37474f"></rect><rect x="161.81" y="348.58" width="6.77" height="14.08" style="fill:#37474f"></rect><rect x="173.02" y="171.01" width="6.77" height="14.08" style="fill:#37474f"></rect><rect x="173.02" y="188.77" width="6.77" height="14.08" style="fill:#37474f"></rect><rect x="173.02" y="206.53" width="6.77" height="14.08" style="fill:#37474f"></rect><rect x="173.02" y="224.28" width="6.77" height="14.08" style="fill:#37474f"></rect><rect x="173.02" y="242.04" width="6.77" height="14.08" style="fill:#37474f"></rect><rect x="173.02" y="259.8" width="6.77" height="14.08" style="fill:#37474f"></rect><rect x="173.02" y="277.55" width="6.77" height="14.08" style="fill:#37474f"></rect><rect x="173.02" y="295.31" width="6.77" height="14.08" style="fill:#37474f"></rect><rect x="173.02" y="313.07" width="6.77" height="14.08" style="fill:#37474f"></rect><rect x="173.02" y="330.82" width="6.77" height="14.08" style="fill:#37474f"></rect><rect x="173.02" y="348.58" width="6.77" height="14.08" style="fill:#37474f"></rect><rect x="173.02" y="171.01" width="6.77" height="14.08" style="fill:#37474f"></rect><rect x="173.02" y="188.77" width="6.77" height="14.08" style="fill:#37474f"></rect><rect x="173.02" y="206.53" width="6.77" height="14.08" style="fill:#7E57C2"></rect><rect x="173.02" y="224.28" width="6.77" height="14.08" style="fill:#37474f"></rect><rect x="173.02" y="242.04" width="6.77" height="14.08" style="fill:#37474f"></rect><rect x="173.02" y="259.8" width="6.77" height="14.08" style="fill:#37474f"></rect><rect x="173.02" y="277.55" width="6.77" height="14.08" style="fill:#37474f"></rect><rect x="173.02" y="295.31" width="6.77" height="14.08" style="fill:#7E57C2"></rect><rect x="173.02" y="313.07" width="6.77" height="14.08" style="fill:#37474f"></rect><rect x="173.02" y="330.82" width="6.77" height="14.08" style="fill:#37474f"></rect><rect x="173.02" y="348.58" width="6.77" height="14.08" style="fill:#37474f"></rect><rect x="184.24" y="171.01" width="6.77" height="14.08" style="fill:#37474f"></rect><rect x="184.24" y="188.77" width="6.77" height="14.08" style="fill:#37474f"></rect><rect x="184.24" y="206.53" width="6.77" height="14.08" style="fill:#37474f"></rect><rect x="184.24" y="224.28" width="6.77" height="14.08" style="fill:#37474f"></rect><rect x="184.24" y="242.04" width="6.77" height="14.08" style="fill:#37474f"></rect><rect x="184.24" y="259.8" width="6.77" height="14.08" style="fill:#37474f"></rect><rect x="184.24" y="277.55" width="6.77" height="14.08" style="fill:#37474f"></rect><rect x="184.24" y="295.31" width="6.77" height="14.08" style="fill:#37474f"></rect><rect x="184.24" y="313.07" width="6.77" height="14.08" style="fill:#37474f"></rect><rect x="184.24" y="330.82" width="6.77" height="14.08" style="fill:#37474f"></rect><rect x="184.24" y="348.58" width="6.77" height="14.08" style="fill:#37474f"></rect><rect x="184.24" y="171.01" width="6.77" height="14.08" style="fill:#7E57C2"></rect><rect x="184.24" y="188.77" width="6.77" height="14.08" style="fill:#37474f"></rect><rect x="184.24" y="206.53" width="6.77" height="14.08" style="fill:#37474f"></rect><rect x="184.24" y="224.28" width="6.77" height="14.08" style="fill:#37474f"></rect><rect x="184.24" y="242.04" width="6.77" height="14.08" style="fill:#37474f"></rect><rect x="184.24" y="259.8" width="6.77" height="14.08" style="fill:#37474f"></rect><rect x="184.24" y="277.55" width="6.77" height="14.08" style="fill:#37474f"></rect><rect x="184.24" y="295.31" width="6.77" height="14.08" style="fill:#37474f"></rect><rect x="184.24" y="313.07" width="6.77" height="14.08" style="fill:#37474f"></rect><rect x="184.24" y="330.82" width="6.77" height="14.08" style="fill:#37474f"></rect><rect x="184.24" y="348.58" width="6.77" height="14.08" style="fill:#37474f"></rect><rect x="95.14" y="147.55" width="62.87" height="216.01" style="fill:#263238"></rect><rect x="95.14" y="161.04" width="62.88" height="2.53" style="fill:#37474f"></rect><rect x="101.88" y="171.01" width="10.99" height="14.08" style="fill:#37474f"></rect><rect x="101.88" y="188.77" width="10.99" height="14.08" style="fill:#37474f"></rect><rect x="101.88" y="206.53" width="10.99" height="14.08" style="fill:#37474f"></rect><rect x="101.88" y="224.28" width="10.99" height="14.08" style="fill:#37474f"></rect><rect x="101.88" y="242.04" width="10.99" height="14.08" style="fill:#37474f"></rect><rect x="101.88" y="259.8" width="10.99" height="14.08" style="fill:#37474f"></rect><rect x="101.88" y="277.55" width="10.99" height="14.08" style="fill:#37474f"></rect><rect x="101.88" y="295.31" width="10.99" height="14.08" style="fill:#37474f"></rect><rect x="101.88" y="313.07" width="10.99" height="14.08" style="fill:#37474f"></rect><rect x="101.88" y="330.82" width="10.99" height="14.08" style="fill:#37474f"></rect><rect x="101.88" y="348.58" width="10.99" height="14.08" style="fill:#37474f"></rect><rect x="101.88" y="171.01" width="10.99" height="14.08" style="fill:#37474f"></rect><rect x="101.88" y="188.77" width="10.99" height="14.08" style="fill:#37474f"></rect><rect x="101.88" y="206.53" width="10.99" height="14.08" style="fill:#37474f"></rect><rect x="101.88" y="224.28" width="10.99" height="14.08" style="fill:#37474f"></rect><rect x="101.88" y="242.04" width="10.99" height="14.08" style="fill:#37474f"></rect><rect x="101.88" y="259.8" width="10.99" height="14.08" style="fill:#37474f"></rect><rect x="101.88" y="277.55" width="10.99" height="14.08" style="fill:#37474f"></rect><rect x="101.88" y="295.31" width="10.99" height="14.08" style="fill:#37474f"></rect><rect x="101.88" y="313.07" width="10.99" height="14.08" style="fill:#37474f"></rect><rect x="101.88" y="330.82" width="10.99" height="14.08" style="fill:#7E57C2"></rect><rect x="101.88" y="348.58" width="10.99" height="14.08" style="fill:#37474f"></rect><rect x="120.08" y="171.01" width="10.99" height="14.08" style="fill:#37474f"></rect><rect x="120.08" y="188.77" width="10.99" height="14.08" style="fill:#37474f"></rect><rect x="120.08" y="206.53" width="10.99" height="14.08" style="fill:#37474f"></rect><rect x="120.08" y="224.28" width="10.99" height="14.08" style="fill:#37474f"></rect><rect x="120.08" y="242.04" width="10.99" height="14.08" style="fill:#37474f"></rect><rect x="120.08" y="259.8" width="10.99" height="14.08" style="fill:#37474f"></rect><rect x="120.08" y="277.55" width="10.99" height="14.08" style="fill:#37474f"></rect><rect x="120.08" y="295.31" width="10.99" height="14.08" style="fill:#37474f"></rect><rect x="120.08" y="313.07" width="10.99" height="14.08" style="fill:#37474f"></rect><rect x="120.08" y="330.82" width="10.99" height="14.08" style="fill:#37474f"></rect><rect x="120.08" y="348.58" width="10.99" height="14.08" style="fill:#37474f"></rect><rect x="120.08" y="171.01" width="10.99" height="14.08" style="fill:#37474f"></rect><rect x="120.08" y="188.77" width="10.99" height="14.08" style="fill:#7E57C2"></rect><rect x="120.08" y="206.53" width="10.99" height="14.08" style="fill:#37474f"></rect><rect x="120.08" y="224.28" width="10.99" height="14.08" style="fill:#37474f"></rect><rect x="120.08" y="242.04" width="10.99" height="14.08" style="fill:#37474f"></rect><rect x="120.08" y="259.8" width="10.99" height="14.08" style="fill:#37474f"></rect><rect x="120.08" y="277.55" width="10.99" height="14.08" style="fill:#37474f"></rect><rect x="120.08" y="295.31" width="10.99" height="14.08" style="fill:#7E57C2"></rect><rect x="120.08" y="313.07" width="10.99" height="14.08" style="fill:#37474f"></rect><rect x="120.08" y="330.82" width="10.99" height="14.08" style="fill:#37474f"></rect><rect x="120.08" y="348.58" width="10.99" height="14.08" style="fill:#37474f"></rect><rect x="138.29" y="171.01" width="10.99" height="14.08" style="fill:#37474f"></rect><rect x="138.29" y="188.77" width="10.99" height="14.08" style="fill:#37474f"></rect><rect x="138.29" y="206.53" width="10.99" height="14.08" style="fill:#37474f"></rect><rect x="138.29" y="224.28" width="10.99" height="14.08" style="fill:#37474f"></rect><rect x="138.29" y="242.04" width="10.99" height="14.08" style="fill:#37474f"></rect><rect x="138.29" y="259.8" width="10.99" height="14.08" style="fill:#37474f"></rect><rect x="138.29" y="277.55" width="10.99" height="14.08" style="fill:#37474f"></rect><rect x="138.29" y="295.31" width="10.99" height="14.08" style="fill:#37474f"></rect><rect x="138.29" y="313.07" width="10.99" height="14.08" style="fill:#37474f"></rect><rect x="138.29" y="330.82" width="10.99" height="14.08" style="fill:#37474f"></rect><rect x="138.29" y="348.58" width="10.99" height="14.08" style="fill:#37474f"></rect><rect x="138.29" y="171.01" width="10.99" height="14.08" style="fill:#37474f"></rect><rect x="138.29" y="188.77" width="10.99" height="14.08" style="fill:#37474f"></rect><rect x="138.29" y="206.53" width="10.99" height="14.08" style="fill:#37474f"></rect><rect x="138.29" y="224.28" width="10.99" height="14.08" style="fill:#37474f"></rect><rect x="138.29" y="242.04" width="10.99" height="14.08" style="fill:#7E57C2"></rect><rect x="138.29" y="259.8" width="10.99" height="14.08" style="fill:#37474f"></rect><rect x="138.29" y="277.55" width="10.99" height="14.08" style="fill:#37474f"></rect><rect x="138.29" y="295.31" width="10.99" height="14.08" style="fill:#37474f"></rect><rect x="138.29" y="313.07" width="10.99" height="14.08" style="fill:#37474f"></rect><rect x="138.29" y="330.82" width="10.99" height="14.08" style="fill:#37474f"></rect><rect x="138.29" y="348.58" width="10.99" height="14.08" style="fill:#37474f"></rect><path d="M158,363.56c-.65-69.19-.65-146.82,0-216,.66,69.19.65,146.82,0,216Z" style="fill:#455a64"></path><rect x="211.38" y="222.15" width="62.47" height="141.41" style="fill:#263238"></rect><rect x="226.88" y="202.85" width="46.75" height="19.3" style="fill:#263238"></rect><rect x="230.77" y="205.83" width="4" height="13.34" style="fill:#37474f"></rect><rect x="237.76" y="205.83" width="4" height="13.34" style="fill:#37474f"></rect><rect x="244.76" y="205.83" width="4" height="13.34" style="fill:#37474f"></rect><rect x="251.75" y="205.83" width="4" height="13.34" style="fill:#37474f"></rect><rect x="258.75" y="205.83" width="4" height="13.34" style="fill:#37474f"></rect><rect x="265.74" y="205.83" width="4" height="13.34" style="fill:#37474f"></rect><rect x="273.63" y="202.85" width="21.26" height="19.3" style="fill:#263238"></rect><rect x="276.61" y="205.83" width="3.4" height="13.34" style="fill:#37474f"></rect><rect x="282.56" y="205.83" width="3.4" height="13.34" style="fill:#37474f"></rect><rect x="288.51" y="205.83" width="3.4" height="13.34" style="fill:#37474f"></rect><rect x="273.86" y="222.15" width="31.81" height="141.41" style="fill:#263238"></rect><rect x="235.74" y="193.07" width="1.43" height="9.78" style="fill:#455a64"></rect><rect x="263.33" y="193.07" width="1.43" height="9.78" style="fill:#455a64"></rect><rect x="229.41" y="175.97" width="41.69" height="17.1" style="fill:#455a64"></rect><rect x="224.17" y="235.36" width="11.53" height="17.66" style="fill:#7E57C2"></rect><rect x="247.65" y="235.36" width="11.53" height="17.66" style="fill:#37474f"></rect><rect x="224.17" y="263.19" width="11.53" height="17.66" style="fill:#37474f"></rect><rect x="247.65" y="263.19" width="11.53" height="17.66" style="fill:#37474f"></rect><rect x="224.17" y="291.02" width="11.53" height="17.66" style="fill:#37474f"></rect><rect x="247.65" y="291.02" width="11.53" height="17.66" style="fill:#37474f"></rect><rect x="224.17" y="318.85" width="11.53" height="17.66" style="fill:#37474f"></rect><rect x="247.65" y="318.85" width="11.53" height="17.66" style="fill:#7E57C2"></rect><rect x="224.17" y="346.68" width="11.53" height="16.88" style="fill:#37474f"></rect><rect x="247.65" y="346.68" width="11.53" height="16.88" style="fill:#37474f"></rect><rect x="279.47" y="235.36" width="6.63" height="17.66" style="fill:#37474f"></rect><rect x="292.96" y="235.36" width="6.63" height="17.66" style="fill:#37474f"></rect><rect x="279.47" y="263.19" width="6.63" height="17.66" style="fill:#37474f"></rect><rect x="292.96" y="263.19" width="6.63" height="17.66" style="fill:#7E57C2"></rect><rect x="279.47" y="291.02" width="6.63" height="17.66" style="fill:#37474f"></rect><rect x="292.96" y="291.02" width="6.63" height="17.66" style="fill:#37474f"></rect><rect x="279.47" y="318.85" width="6.63" height="17.66" style="fill:#7E57C2"></rect><rect x="292.96" y="318.85" width="6.63" height="17.66" style="fill:#37474f"></rect><rect x="279.47" y="346.68" width="6.62" height="16.88" style="fill:#37474f"></rect><rect x="292.96" y="346.68" width="6.62" height="16.88" style="fill:#37474f"></rect><path d="M273.86,363.56c-.67-45.43-.65-95.94,0-141.41.65,45.48.66,96,0,141.41Z" style="fill:#455a64"></path><rect x="370.52" y="198.97" width="41.18" height="164.59" style="fill:#263238"></rect><rect x="374.46" y="213.69" width="5.59" height="21.9" style="fill:#37474f"></rect><rect x="374.46" y="243.52" width="5.59" height="21.9" style="fill:#37474f"></rect><rect x="374.46" y="273.35" width="5.59" height="21.9" style="fill:#37474f"></rect><rect x="374.46" y="303.19" width="5.59" height="21.9" style="fill:#37474f"></rect><rect x="374.46" y="333.02" width="5.59" height="21.9" style="fill:#37474f"></rect><rect x="374.46" y="362.86" width="5.59" height="0.71" style="fill:#37474f"></rect><rect x="383.69" y="213.69" width="5.59" height="21.9" style="fill:#37474f"></rect><rect x="383.69" y="243.52" width="5.59" height="21.9" style="fill:#37474f"></rect><rect x="383.69" y="273.35" width="5.59" height="21.9" style="fill:#7E57C2"></rect><rect x="383.69" y="303.19" width="5.59" height="21.9" style="fill:#37474f"></rect><rect x="383.69" y="333.02" width="5.59" height="21.9" style="fill:#37474f"></rect><rect x="383.69" y="362.86" width="5.59" height="0.71" style="fill:#37474f"></rect><rect x="392.93" y="213.69" width="5.59" height="21.9" style="fill:#37474f"></rect><rect x="392.93" y="243.52" width="5.59" height="21.9" style="fill:#37474f"></rect><rect x="392.93" y="273.35" width="5.59" height="21.9" style="fill:#37474f"></rect><rect x="392.93" y="303.19" width="5.59" height="21.9" style="fill:#37474f"></rect><rect x="392.93" y="333.02" width="5.59" height="21.9" style="fill:#37474f"></rect><rect x="392.93" y="362.86" width="5.59" height="0.71" style="fill:#37474f"></rect><rect x="402.16" y="213.69" width="5.59" height="21.9" style="fill:#37474f"></rect><rect x="402.16" y="243.52" width="5.59" height="21.9" style="fill:#37474f"></rect><rect x="402.16" y="273.35" width="5.59" height="21.9" style="fill:#37474f"></rect><rect x="402.16" y="303.19" width="5.59" height="21.9" style="fill:#37474f"></rect><rect x="402.16" y="333.02" width="5.59" height="21.9" style="fill:#37474f"></rect><rect x="402.16" y="362.86" width="5.59" height="0.71" style="fill:#37474f"></rect><rect x="286.1" y="198.97" width="84.42" height="164.59" style="fill:#263238"></rect><rect x="290.14" y="188.32" width="115.65" height="10.65" style="fill:#263238"></rect><rect x="294.17" y="213.69" width="11.46" height="21.9" style="fill:#37474f"></rect><rect x="294.17" y="243.52" width="11.46" height="21.9" style="fill:#37474f"></rect><rect x="294.17" y="273.35" width="11.46" height="21.9" style="fill:#37474f"></rect><rect x="294.17" y="303.19" width="11.46" height="21.9" style="fill:#37474f"></rect><rect x="294.17" y="333.02" width="11.46" height="21.9" style="fill:#37474f"></rect><rect x="294.17" y="362.86" width="11.46" height="0.71" style="fill:#37474f"></rect><rect x="313.11" y="213.69" width="11.46" height="21.9" style="fill:#37474f"></rect><rect x="313.11" y="243.52" width="11.46" height="21.9" style="fill:#37474f"></rect><rect x="313.11" y="273.35" width="11.46" height="21.9" style="fill:#37474f"></rect><rect x="313.11" y="303.19" width="11.46" height="21.9" style="fill:#37474f"></rect><rect x="313.11" y="333.02" width="11.46" height="21.9" style="fill:#37474f"></rect><rect x="313.1" y="362.86" width="11.46" height="0.71" style="fill:#7E57C2"></rect><rect x="332.05" y="213.69" width="11.46" height="21.9" style="fill:#37474f"></rect><rect x="332.05" y="243.52" width="11.46" height="21.9" style="fill:#7E57C2"></rect><rect x="332.05" y="273.35" width="11.46" height="21.9" style="fill:#37474f"></rect><rect x="332.05" y="303.19" width="11.46" height="21.9" style="fill:#37474f"></rect><rect x="332.05" y="333.02" width="11.46" height="21.9" style="fill:#37474f"></rect><rect x="332.04" y="362.86" width="11.46" height="0.71" style="fill:#37474f"></rect><rect x="350.98" y="213.69" width="11.46" height="21.9" style="fill:#37474f"></rect><rect x="350.98" y="243.52" width="11.46" height="21.9" style="fill:#37474f"></rect><rect x="350.98" y="273.35" width="11.46" height="21.9" style="fill:#37474f"></rect><rect x="350.98" y="303.19" width="11.46" height="21.9" style="fill:#37474f"></rect><rect x="350.98" y="333.02" width="11.46" height="21.9" style="fill:#7E57C2"></rect><rect x="350.98" y="362.86" width="11.46" height="0.71" style="fill:#37474f"></rect><path d="M370.52,363.56c-.65-52.72-.66-111.87,0-164.59.65,52.72.65,111.87,0,164.59Z" style="fill:#455a64"></path><path d="M411.69,199c-40.35.67-85.21.65-125.59,0,40.39-.65,85.23-.66,125.59,0Z" style="fill:#455a64"></path><path d="M286.1,199c.65,52.72.65,111.87,0,164.59-.66-52.72-.65-111.87,0-164.59Z" style="fill:#455a64"></path><path d="M290.14,199a27.85,27.85,0,0,1,0-10.65,27.66,27.66,0,0,1,0,10.65Z" style="fill:#455a64"></path><rect x="88.31" y="204.5" width="323.38" height="7.37" transform="translate(500 416.38) rotate(180)" style="fill:#c7c7c7"></rect><rect x="54.99" y="370.94" width="390.01" height="21.16" transform="translate(500 763.03) rotate(180)" style="fill:#c7c7c7"></rect><path d="M88.31,52.81H411.69V363.56H88.31Zm316.55,6.83H95.14v297.1H404.86Z" style="fill:#c7c7c7"></path><rect x="302.83" y="52.81" width="3.69" height="303.92" style="fill:#c7c7c7"></rect><rect x="193.48" y="52.81" width="3.69" height="303.92" style="fill:#c7c7c7"></rect></g><g id="freepik--Floor--inject-140"><path d="M45.43,470.67c131.06-.61,278.08-.62,409.14,0-131.06.62-278.08.61-409.14,0Z" style="fill:#263238"></path></g><g id="freepik--Plant--inject-140"><path d="M420.16,365.05s-7.63-5.76-4.23-8.36c1.19-.91,3.84,2,4.23,5.15.38-3.19,3-6.06,4.22-5.15C427.79,359.29,420.16,365.05,420.16,365.05Z" style="fill:#7E57C2"></path><path d="M420.16,365.05s-7.63-5.76-4.23-8.36c1.19-.91,3.84,2,4.23,5.15.38-3.19,3-6.06,4.22-5.15C427.79,359.29,420.16,365.05,420.16,365.05Z" style="opacity:0.2"></path><path d="M420.16,365.05c-4.61,0-8-4.19-7-6,1.19-2.08,5.33,2.82,5.33,2.82s-1.55-6.92,1.66-6.92,1.65,6.92,1.65,6.92,4.14-4.9,5.33-2.82C428.18,360.86,424.76,365.05,420.16,365.05Z" style="fill:#7E57C2"></path><path d="M407.14,414.49l-.74,16.79c-2.74.24-12.07-2.37-16.54-6.85-3.37-3.36-2.49-13.79-.62-26.72s5.59-14.42,8.7-13.68a4.55,4.55,0,0,1,2,1c1.65,1.44,2.36,4.13,2.64,7.59.37,4.6-1.49,16.66-1,19.52a2.47,2.47,0,0,0,1.17,1.74C404.15,414.74,406.41,414.49,407.14,414.49Z" style="fill:#455a64"></path><path d="M432.87,437.77s-13.25,4.85-27.05,0c0,0,1.31-53.34,3-62.29s5.47-13.24,11.56-13.24a9.12,9.12,0,0,1,1.18.07c4.84.5,8.23,4.22,9.26,11.31.8,5.42,1.5,35.43,1.84,52.42C432.79,433,432.87,437.77,432.87,437.77Z" style="fill:#455a64"></path><path d="M448.84,407.43c-4.48,4.48-13.8,7.09-16.53,6.84l-.75-16.78c1,0,5.1.49,5.59-2.36s-1.36-14.92-1-19.52,1.49-7.84,4.6-8.58a4.2,4.2,0,0,1,.79-.13c2.93-.29,6.2,2,7.91,13.8A149.27,149.27,0,0,1,451.07,396C451.28,401.46,450.72,405.56,448.84,407.43Z" style="fill:#455a64"></path><path d="M420.16,362.21a.86.86,0,0,1,.57.18,2.55,2.55,0,0,1,.46.41,5.92,5.92,0,0,1,.68,1,14.45,14.45,0,0,1,.91,2.28,39.57,39.57,0,0,1,1.11,4.79c.54,3.23.84,6.5,1.07,9.76s.32,6.54.38,9.81l.19,9.79c.07,6.54.17,13.07.21,19.6l0,9.8c0,3.27,0,6.54,0,9.8-.13-3.26-.22-6.53-.33-9.79l-.26-9.8c-.15-6.53-.25-13.06-.38-19.6s-.07-13.06-.39-19.58c-.16-3.25-.4-6.51-.86-9.73a36.86,36.86,0,0,0-.94-4.79,14.19,14.19,0,0,0-.82-2.29,5.72,5.72,0,0,0-.62-1,2.5,2.5,0,0,0-.43-.43A.91.91,0,0,0,420.16,362.21Z" style="fill:#37474f"></path><path d="M429.76,438.62c-.08-3.27-.14-6.54-.2-9.81l-.14-9.8-.21-19.6q0-4.91-.16-9.8l-.06-2.45-.09-2.44c-.08-1.63-.2-3.26-.34-4.88s-.32-3.25-.55-4.86a41,41,0,0,0-.94-4.79,17.29,17.29,0,0,0-1.8-4.51,9.91,9.91,0,0,0-1.52-1.9,8.41,8.41,0,0,0-2-1.37,7.86,7.86,0,0,1,2.06,1.32,8.9,8.9,0,0,1,1.59,1.87,17.39,17.39,0,0,1,1.94,4.52A55.71,55.71,0,0,1,429,379.8c.33,3.25.55,6.52.67,9.79s.19,6.54.24,9.81.1,6.53.11,9.8l0,9.81-.09,9.8C429.91,432.08,429.85,435.35,429.76,438.62Z" style="fill:#37474f"></path><path d="M420.16,362.21a.87.87,0,0,0-.56.2,2,2,0,0,0-.43.43,5.24,5.24,0,0,0-.63,1,14.19,14.19,0,0,0-.82,2.29,36.86,36.86,0,0,0-.94,4.79c-.46,3.22-.7,6.48-.86,9.73-.31,6.52-.29,13.05-.39,19.58s-.22,13.07-.38,19.6l-.26,9.8c-.11,3.26-.19,6.53-.33,9.79,0-3.26,0-6.53,0-9.8l0-9.8c0-6.53.15-13.06.22-19.6l.18-9.79c.06-3.27.15-6.54.38-9.81s.54-6.53,1.07-9.76a39.57,39.57,0,0,1,1.11-4.79,14.45,14.45,0,0,1,.91-2.28,5.92,5.92,0,0,1,.68-1,2.55,2.55,0,0,1,.46-.41A.87.87,0,0,1,420.16,362.21Z" style="fill:#37474f"></path><path d="M410.55,438.62c-.09-3.27-.14-6.54-.2-9.81l-.08-9.8V409.2c0-3.27,0-6.53.11-9.8s.13-6.54.24-9.81.35-6.54.67-9.79a56.69,56.69,0,0,1,1.69-9.68,17.36,17.36,0,0,1,1.93-4.52,9.21,9.21,0,0,1,1.59-1.87,8,8,0,0,1,2.06-1.32,8.41,8.41,0,0,0-2,1.37,9.49,9.49,0,0,0-1.51,1.9,17,17,0,0,0-1.81,4.51,41,41,0,0,0-.94,4.79c-.23,1.61-.41,3.23-.55,4.86s-.26,3.25-.34,4.88l-.09,2.44-.06,2.45q-.12,4.89-.16,9.8l-.21,19.6-.14,9.8C410.69,432.08,410.64,435.35,410.55,438.62Z" style="fill:#37474f"></path><path d="M420.16,439.89c-.09-3.23-.12-6.47-.19-9.71l-.1-9.71c-.06-6.47-.06-13-.09-19.42s0-12.95.09-19.42l.1-9.71c.07-3.24.1-6.47.19-9.71.08,3.24.12,6.47.18,9.71l.1,9.71c.06,6.47.06,12.95.09,19.42s0,12.95-.09,19.42l-.1,9.71C420.28,433.42,420.24,436.66,420.16,439.89Z" style="fill:#37474f"></path><path d="M397.94,384a5.24,5.24,0,0,1,.89.93,5.94,5.94,0,0,1,.63,1.13,11.38,11.38,0,0,1,.66,2.5,30.62,30.62,0,0,1,.22,5.15A94.43,94.43,0,0,1,399.4,404a48,48,0,0,0-.53,5.05,17.34,17.34,0,0,0,.37,5,6.92,6.92,0,0,0,1,2.24,4.73,4.73,0,0,0,.81.92,5.51,5.51,0,0,0,1,.7,8.76,8.76,0,0,0,2.37.82c.83.16,1.68.26,2.53.35a20,20,0,0,1-2.56-.16,8.46,8.46,0,0,1-2.5-.69,4.94,4.94,0,0,1-1.13-.7,4.6,4.6,0,0,1-.92-1,6.91,6.91,0,0,1-1.15-2.38,17,17,0,0,1-.52-5.17,48.23,48.23,0,0,1,.5-5.12c.24-1.69.46-3.38.65-5.07s.35-3.38.46-5.08a35.74,35.74,0,0,0,0-5.07,11,11,0,0,0-.49-2.48A5.29,5.29,0,0,0,397.94,384Z" style="fill:#37474f"></path><path d="M397.36,383.87a1.81,1.81,0,0,0-.73.4,4.12,4.12,0,0,0-.57.61,7.12,7.12,0,0,0-.87,1.42,18.62,18.62,0,0,0-1.14,3.16,49.2,49.2,0,0,0-1.24,6.6c-.54,4.47-1.06,8.94-1.2,13.42a39.1,39.1,0,0,0,.28,6.68,12.88,12.88,0,0,0,.84,3.17,8.4,8.4,0,0,0,1.88,2.64,19.13,19.13,0,0,0,5.55,3.64,30.25,30.25,0,0,0,6.39,2.09A28.24,28.24,0,0,1,400,426a19,19,0,0,1-5.81-3.56,8.72,8.72,0,0,1-2.07-2.79,13.57,13.57,0,0,1-.94-3.33,37.86,37.86,0,0,1-.32-6.81A119,119,0,0,1,392.24,396a44.63,44.63,0,0,1,1.47-6.63,18.28,18.28,0,0,1,1.31-3.14,7.4,7.4,0,0,1,1-1.4,3.1,3.1,0,0,1,.62-.58A1.72,1.72,0,0,1,397.36,383.87Z" style="fill:#37474f"></path><path d="M440.85,367a5.33,5.33,0,0,0-1.33,2.13,11,11,0,0,0-.48,2.47,34.46,34.46,0,0,0,0,5.08c.1,1.7.26,3.39.46,5.08s.4,3.38.64,5.06a48.69,48.69,0,0,1,.51,5.13,17.39,17.39,0,0,1-.52,5.17,7.19,7.19,0,0,1-1.15,2.38,5.23,5.23,0,0,1-.93,1,5.4,5.4,0,0,1-1.12.7,8.54,8.54,0,0,1-2.5.69,18.32,18.32,0,0,1-2.56.15c.85-.08,1.69-.18,2.52-.34a8.34,8.34,0,0,0,2.37-.83,5.17,5.17,0,0,0,1.82-1.61,6.73,6.73,0,0,0,1-2.24,17.7,17.7,0,0,0,.37-5c-.07-1.69-.29-3.36-.53-5.05a94.44,94.44,0,0,1-.95-10.22,29.57,29.57,0,0,1,.23-5.15,11.38,11.38,0,0,1,.66-2.5A6.3,6.3,0,0,1,440,368,5.54,5.54,0,0,1,440.85,367Z" style="fill:#37474f"></path><path d="M441.43,366.87a1.86,1.86,0,0,1,.77.35,4.26,4.26,0,0,1,.62.58,8,8,0,0,1,1,1.41,18.71,18.71,0,0,1,1.3,3.14,42.89,42.89,0,0,1,1.47,6.63,119.06,119.06,0,0,1,1.38,13.48,38,38,0,0,1-.33,6.81,13.14,13.14,0,0,1-.94,3.33,8.8,8.8,0,0,1-2.07,2.79,18.84,18.84,0,0,1-5.81,3.56,28.08,28.08,0,0,1-6.54,1.74,30.5,30.5,0,0,0,6.4-2.08,19.35,19.35,0,0,0,5.54-3.64,8.51,8.51,0,0,0,1.88-2.64,12.56,12.56,0,0,0,.84-3.17,38.11,38.11,0,0,0,.28-6.68c-.14-4.48-.65-9-1.2-13.42a47.53,47.53,0,0,0-1.24-6.61,18.48,18.48,0,0,0-1.13-3.15,8.66,8.66,0,0,0-.87-1.43,3.67,3.67,0,0,0-.58-.6A1.59,1.59,0,0,0,441.43,366.87Z" style="fill:#37474f"></path><path d="M410.55,371.6a12.65,12.65,0,0,1,1.05,1.5c.16.26.3.53.45.79s.28.54.41.81l-.62-.08c.19-.23.39-.46.59-.68s.41-.45.63-.66a10,10,0,0,1,1.38-1.2,11.24,11.24,0,0,1-.94,1.57c-.16.26-.35.49-.53.74s-.37.47-.56.71l-.37.45-.25-.53c-.13-.27-.26-.54-.38-.82s-.24-.56-.34-.84A11.52,11.52,0,0,1,410.55,371.6Z" style="fill:#37474f"></path><path d="M412.63,370.73a4.47,4.47,0,0,1,.16,1.07,7.18,7.18,0,0,1,0,1,7.39,7.39,0,0,1-.21,1,4.1,4.1,0,0,1-.42,1,4,4,0,0,1-.16-1.07,6,6,0,0,1,.05-1,5.75,5.75,0,0,1,.2-1A3.94,3.94,0,0,1,412.63,370.73Z" style="fill:#37474f"></path><path d="M423.66,423a10.49,10.49,0,0,1,1.22,1.37c.19.23.36.48.54.73s.34.5.5.75h-.63q.25-.39.51-.75c.19-.24.36-.49.55-.73a11.11,11.11,0,0,1,1.23-1.35,11.43,11.43,0,0,1-.74,1.67c-.14.27-.3.53-.44.79s-.32.52-.48.77l-.32.5-.31-.5c-.16-.26-.32-.51-.47-.77s-.3-.53-.43-.8A12,12,0,0,1,423.66,423Z" style="fill:#37474f"></path><path d="M425.63,421.87a4,4,0,0,1,.28,1,6.15,6.15,0,0,1,.08,1,6,6,0,0,1-.09,1,4.5,4.5,0,0,1-.29,1,4.05,4.05,0,0,1-.29-1,7.4,7.4,0,0,1-.08-1,7.18,7.18,0,0,1,.09-1A4.08,4.08,0,0,1,425.63,421.87Z" style="fill:#37474f"></path><path d="M424.49,359.77a11.25,11.25,0,0,1,.49,1.76c.07.3.11.6.16.9s.09.59.12.89l-.56-.27c.26-.16.52-.31.79-.45s.53-.29.81-.41a11.59,11.59,0,0,1,1.7-.68,12.08,12.08,0,0,1-1.41,1.18c-.24.18-.49.34-.74.52l-.77.48-.5.3-.06-.58c0-.3-.06-.6-.08-.91s0-.6,0-.9A12.47,12.47,0,0,1,424.49,359.77Z" style="fill:#37474f"></path><path d="M426.74,359.64a4,4,0,0,1-.2,1.06,6.34,6.34,0,0,1-.39,1,6.84,6.84,0,0,1-.53.9,4.94,4.94,0,0,1-.73.8,4.14,4.14,0,0,1,.2-1.07,8,8,0,0,1,.39-1,6.92,6.92,0,0,1,.54-.9A4.49,4.49,0,0,1,426.74,359.64Z" style="fill:#37474f"></path><path d="M451.92,391.2a12.33,12.33,0,0,1-.18,1.83c0,.3-.11.59-.16.89s-.14.59-.21.88l-.42-.46.89-.14c.3,0,.6-.08.9-.1a11.17,11.17,0,0,1,1.83,0,11.8,11.8,0,0,1-1.73.6l-.88.22-.89.17-.57.11.15-.57c.08-.29.16-.58.25-.87s.17-.58.28-.86A12.44,12.44,0,0,1,451.92,391.2Z" style="fill:#37474f"></path><path d="M454.07,391.88a4.46,4.46,0,0,1-.57.92,6.4,6.4,0,0,1-1.53,1.41,4.15,4.15,0,0,1-1,.5,4.25,4.25,0,0,1,.56-.93,7,7,0,0,1,1.53-1.41A4.41,4.41,0,0,1,454.07,391.88Z" style="fill:#37474f"></path><path d="M437.27,385a10.09,10.09,0,0,1,1.51,1c.25.18.47.38.7.58s.45.4.67.61l-.61.14c.1-.28.21-.56.32-.84s.22-.57.35-.84a11.39,11.39,0,0,1,.87-1.61,10.76,10.76,0,0,1-.32,1.8c-.06.3-.16.58-.23.88s-.18.57-.28.86l-.19.55-.42-.4c-.22-.21-.43-.42-.64-.64s-.42-.44-.62-.67A12.46,12.46,0,0,1,437.27,385Z" style="fill:#37474f"></path><path d="M438.91,383.41a4,4,0,0,1,.53.94,7.31,7.31,0,0,1,.33,1,5.82,5.82,0,0,1,.16,1,3.94,3.94,0,0,1,0,1.08,3.93,3.93,0,0,1-.54-.95,6.73,6.73,0,0,1-.32-1,6.92,6.92,0,0,1-.17-1A4.4,4.4,0,0,1,438.91,383.41Z" style="fill:#37474f"></path><path d="M438.65,364.38a11.47,11.47,0,0,1,1.51,1l.7.58.67.61-.61.15c.1-.29.2-.57.31-.85s.23-.56.36-.83a10.55,10.55,0,0,1,.87-1.62,13.42,13.42,0,0,1-.32,1.81c-.07.29-.16.58-.24.87s-.18.58-.28.86l-.19.56-.42-.41c-.21-.21-.43-.42-.64-.64s-.41-.43-.61-.67A11.34,11.34,0,0,1,438.65,364.38Z" style="fill:#37474f"></path><path d="M440.29,362.83a4.42,4.42,0,0,1,.53.94,6.73,6.73,0,0,1,.32,1,7.14,7.14,0,0,1,.17,1,4.38,4.38,0,0,1,0,1.08,4.42,4.42,0,0,1-.53-.94,7,7,0,0,1-.49-2A4.38,4.38,0,0,1,440.29,362.83Z" style="fill:#37474f"></path><path d="M426.92,379.42a12.19,12.19,0,0,1,1.31,1.28c.2.22.39.46.58.69s.38.48.56.72l-.63,0c.15-.26.3-.53.46-.78s.32-.52.49-.76a12,12,0,0,1,1.13-1.45,10.16,10.16,0,0,1-.62,1.73c-.12.28-.26.55-.38.82s-.28.54-.43.8l-.28.51-.34-.47c-.18-.24-.36-.49-.52-.74s-.34-.5-.49-.76A10.45,10.45,0,0,1,426.92,379.42Z" style="fill:#37474f"></path><path d="M428.8,378.18a3.88,3.88,0,0,1,.36,1,8.81,8.81,0,0,1,.15,1,6,6,0,0,1,0,1,4.09,4.09,0,0,1-.22,1.06,4.15,4.15,0,0,1-.36-1,6.09,6.09,0,0,1-.15-1,7.21,7.21,0,0,1,0-1A4.47,4.47,0,0,1,428.8,378.18Z" style="fill:#37474f"></path><path d="M404.39,386.39a11.79,11.79,0,0,1,1.81.3l.88.23.86.27-.49.39c0-.3-.05-.6-.07-.9s0-.6,0-.9a11.23,11.23,0,0,1,.1-1.83,11,11,0,0,1,.48,1.77c.06.29.1.59.15.89s.08.6.12.9l.06.58-.55-.19-.86-.31c-.27-.11-.56-.22-.83-.35A11,11,0,0,1,404.39,386.39Z" style="fill:#37474f"></path><path d="M405.23,384.3a4,4,0,0,1,.88.63,7.33,7.33,0,0,1,.71.76,7.19,7.19,0,0,1,.58.86,4.06,4.06,0,0,1,.42,1,4.73,4.73,0,0,1-.87-.63,7.29,7.29,0,0,1-1.3-1.63A4.15,4.15,0,0,1,405.23,384.3Z" style="fill:#37474f"></path><path d="M385.87,399.68a12,12,0,0,1,1.81.3l.88.23c.29.08.57.18.86.27l-.49.39c0-.3-.06-.6-.07-.9s0-.6,0-.91a11.35,11.35,0,0,1,.1-1.83,11.63,11.63,0,0,1,.48,1.77c.06.3.1.6.15.9s.08.6.11.9l.07.58-.56-.19-.85-.31c-.28-.12-.56-.22-.84-.35A10.9,10.9,0,0,1,385.87,399.68Z" style="fill:#37474f"></path><path d="M386.7,397.59a3.79,3.79,0,0,1,.88.63,6.95,6.95,0,0,1,1.3,1.62,4.15,4.15,0,0,1,.42,1,4.34,4.34,0,0,1-.88-.62,7.36,7.36,0,0,1-.71-.77,6.47,6.47,0,0,1-.58-.86A4.63,4.63,0,0,1,386.7,397.59Z" style="fill:#37474f"></path><path d="M418.2,391.7a11.19,11.19,0,0,1,1.22,1.36c.19.24.36.49.54.73s.35.5.51.75h-.63c.17-.25.33-.51.51-.75s.35-.49.54-.73a11.19,11.19,0,0,1,1.22-1.36,10.93,10.93,0,0,1-.73,1.68c-.13.27-.29.53-.44.79s-.31.52-.47.77l-.31.49-.32-.49c-.16-.25-.32-.51-.47-.77s-.3-.52-.44-.8A10.42,10.42,0,0,1,418.2,391.7Z" style="fill:#37474f"></path><path d="M420.16,390.58a4.5,4.5,0,0,1,.29,1,6.8,6.8,0,0,1,0,2.08,4.5,4.5,0,0,1-.29,1,4.08,4.08,0,0,1-.3-1,6.8,6.8,0,0,1,0-2.08A4.08,4.08,0,0,1,420.16,390.58Z" style="fill:#37474f"></path><path d="M397.71,426.32a11.53,11.53,0,0,1,1.82-.25l.91,0h.9l-.35.52c-.12-.27-.23-.55-.34-.84s-.21-.56-.29-.85a11.89,11.89,0,0,1-.45-1.78,11.52,11.52,0,0,1,1,1.55c.15.26.28.54.41.81s.26.54.38.82l.23.54-.59,0-.9,0c-.3,0-.6,0-.9-.09A11.49,11.49,0,0,1,397.71,426.32Z" style="fill:#37474f"></path><path d="M397.89,424.07a4.7,4.7,0,0,1,1,.34,7.39,7.39,0,0,1,.91.52,7.31,7.31,0,0,1,.82.65,4.06,4.06,0,0,1,.69.83,4.7,4.7,0,0,1-1-.34,7.39,7.39,0,0,1-.91-.52,7.2,7.2,0,0,1-.81-.65A4.05,4.05,0,0,1,397.89,424.07Z" style="fill:#37474f"></path><path d="M397.94,394.41a11.1,11.1,0,0,1,1.22,1.36c.2.24.37.49.55.73s.34.5.5.75h-.62l.5-.75c.18-.24.35-.49.54-.73a12.09,12.09,0,0,1,1.23-1.36,12,12,0,0,1-.74,1.68c-.13.27-.29.53-.43.79l-.48.78-.31.49-.31-.49q-.25-.39-.48-.78c-.14-.26-.3-.52-.43-.79A12,12,0,0,1,397.94,394.41Z" style="fill:#37474f"></path><path d="M399.9,393.29a4.64,4.64,0,0,1,.29,1,6.15,6.15,0,0,1,.08,1,6,6,0,0,1-.08,1,3.94,3.94,0,0,1-.29,1,3.6,3.6,0,0,1-.29-1,6,6,0,0,1-.08-1,6.15,6.15,0,0,1,.08-1A4.16,4.16,0,0,1,399.9,393.29Z" style="fill:#37474f"></path><path d="M441.94,404a10.23,10.23,0,0,1,.05,1.83c0,.31,0,.61-.06.91s-.06.6-.1.9l-.48-.41c.29-.08.58-.17.88-.24s.58-.15.88-.2a10.78,10.78,0,0,1,1.82-.25,11.37,11.37,0,0,1-1.65.8c-.28.12-.57.22-.85.33l-.86.28-.56.17.08-.58c.05-.3.09-.6.14-.89s.11-.6.19-.89A11.39,11.39,0,0,1,441.94,404Z" style="fill:#37474f"></path><path d="M444.16,404.41a4.19,4.19,0,0,1-.45,1,7.31,7.31,0,0,1-.61.85,7.38,7.38,0,0,1-.74.74,4.15,4.15,0,0,1-.9.6,4.19,4.19,0,0,1,.45-1,7.39,7.39,0,0,1,.62-.85,7.28,7.28,0,0,1,.73-.74A4.41,4.41,0,0,1,444.16,404.41Z" style="fill:#37474f"></path><path d="M412.78,413.32a11.18,11.18,0,0,1,1.22,1.37c.19.23.36.48.54.73s.35.49.51.75h-.63c.17-.26.33-.51.51-.75s.35-.5.54-.73a11.28,11.28,0,0,1,1.23-1.37A11.09,11.09,0,0,1,416,415c-.13.28-.29.53-.44.8s-.31.52-.47.77l-.31.49-.32-.49c-.16-.25-.32-.51-.47-.77s-.3-.52-.44-.8A11.51,11.51,0,0,1,412.78,413.32Z" style="fill:#37474f"></path><path d="M414.74,412.21a4.36,4.36,0,0,1,.29,1,7.17,7.17,0,0,1,.08,1,6.15,6.15,0,0,1-.08,1,4.64,4.64,0,0,1-.29,1,4.2,4.2,0,0,1-.3-1,7.4,7.4,0,0,1-.08-1,6,6,0,0,1,.09-1A3.6,3.6,0,0,1,414.74,412.21Z" style="fill:#37474f"></path><path d="M389.25,411.24a12.18,12.18,0,0,1,1.23,1.37c.19.23.36.48.54.73s.34.49.51.75h-.63c.16-.26.33-.51.5-.75s.35-.5.55-.73a11.18,11.18,0,0,1,1.22-1.37,11.51,11.51,0,0,1-.73,1.68c-.14.28-.3.53-.44.8s-.31.52-.47.77l-.32.49-.31-.49c-.16-.26-.32-.51-.47-.77s-.31-.53-.44-.8A11.55,11.55,0,0,1,389.25,411.24Z" style="fill:#37474f"></path><path d="M391.21,410.13a3.6,3.6,0,0,1,.29,1,7.18,7.18,0,0,1,.09,1,7.4,7.4,0,0,1-.08,1,4.2,4.2,0,0,1-.3,1,4.64,4.64,0,0,1-.29-1,6.15,6.15,0,0,1-.08-1,7.17,7.17,0,0,1,.08-1A4.36,4.36,0,0,1,391.21,410.13Z" style="fill:#37474f"></path><path d="M392,390.28s-7.09,0-6.24-3.06c.3-1.06,3.15-.55,4.81,1.17-1.2-2.07-.91-4.95.19-4.94C393.94,383.47,392,390.28,392,390.28Z" style="fill:#7E57C2"></path><path d="M392,390.28s-7.09,0-6.24-3.06c.3-1.06,3.15-.55,4.81,1.17-1.2-2.07-.91-4.95.19-4.94C393.94,383.47,392,390.28,392,390.28Z" style="opacity:0.2"></path><path d="M392,390.28c-2.73,2.06-6.62,1.11-6.82-.44-.23-1.77,4.41-.71,4.41-.71s-4-3.41-2.12-4.84,4.07,3.36,4.07,3.36.26-4.75,1.9-4C394.87,384.22,394.72,388.23,392,390.28Z" style="fill:#7E57C2"></path><path d="M446.05,371.87s-3.73-6-.68-6.91c1.06-.31,2.13,2.38,1.54,4.7,1.12-2.11,3.72-3.38,4.3-2.44C452.87,369.93,446.05,371.87,446.05,371.87Z" style="fill:#7E57C2"></path><path d="M446.05,371.87s-3.73-6-.68-6.91c1.06-.31,2.13,2.38,1.54,4.7,1.12-2.11,3.72-3.38,4.3-2.44C452.87,369.93,446.05,371.87,446.05,371.87Z" style="opacity:0.2"></path><path d="M446.05,371.87c-3.18-1.23-4.42-5-3.21-6,1.37-1.12,2.93,3.37,2.93,3.37s.78-5.2,3-4.34-.71,5.23-.71,5.23,4.18-2.28,4.44-.53C452.72,371.12,449.24,373.1,446.05,371.87Z" style="fill:#7E57C2"></path><polygon points="398.98 438.53 437.42 438.53 433.55 470.67 402.85 470.67 398.98 438.53" style="fill:#7E57C2"></polygon><polygon points="398.98 438.53 399.85 445.78 436.76 444.01 437.42 438.53 398.98 438.53" style="opacity:0.1"></polygon><rect x="396.56" y="434.47" width="43.27" height="5.75" style="fill:#7E57C2"></rect></g><g id="freepik--Character--inject-140"><path d="M90.09,249.75c11.6,21.47,30.09,45.94,36,49.12,7.44,4,43.49-.94,45.49-1.27,4.94-.84,5.36-32.45,0-31.77-8.11,1-31.48,6.18-33.66,4.91s-18.39-13.12-35.4-26.76C90.78,234.54,82.89,236.43,90.09,249.75Z" style="fill:#ad6359"></path><path d="M171.56,297.6a95.84,95.84,0,0,0,13.54,1.8c3.58.05,13.87-.1,14.31-4,.31-2.68-5.76-3.31-10-3.85-2.25-.28-5.33-1.71-5.09-3.17.41-2.56,6.25-1.72,10.22-.67,7.68,2,18.41,6.5,21.52,2,1.18-1.69-1.23-3.51-4.46-5.06,4.95,1.48,10,2.41,11.42.58.79-1,.55-2.11-.34-3.15a3.07,3.07,0,0,0,3.11-1.41c1-1.81-.28-3.74-2.38-5.49a1.7,1.7,0,0,0,1-1.16c1.68-5.22-16.34-13.91-21.69-13.71-15.73.57-31.11,5.53-31.11,5.53C167.07,272.06,171.54,297.59,171.56,297.6Z" style="fill:#ad6359"></path><path d="M189.51,278a26,26,0,0,1,10.9,1.07c4.43,1.44,7.71,3.64,11.65,5.69a.09.09,0,1,1-.08.16c-1.88-1-9.52-4.46-11.44-5.2a24.85,24.85,0,0,0-11-1.66S189.47,278,189.51,278Z" style="fill:#263238"></path><path d="M190.53,271a61.36,61.36,0,0,1,12.56.8c4.5.92,8.49,3.34,12.39,5.65,2.34,1.39,4.66,2.83,6.94,4.33.09.06,0,.22-.08.16q-6-3.62-12.15-6.85a32.66,32.66,0,0,0-12.27-3.7c-2.45-.23-4.92-.28-7.38-.32C190.49,271.06,190.49,271,190.53,271Z" style="fill:#263238"></path><path d="M193.17,264.36c4-.27,7.45-.51,11.35.58,5.16,1.46,10.67,4.79,12.61,6,2.14,1.31,4.23,2.69,6.31,4.1.08.05,0,.2-.1.15a128.24,128.24,0,0,0-14.65-8.22,25.94,25.94,0,0,0-7.59-2.4,46.65,46.65,0,0,0-7.93-.15A0,0,0,1,1,193.17,264.36Z" style="fill:#263238"></path><path d="M169.88,264.65l-1.49,41.24s-35-.3-42.67-5.05S98,266.12,90.35,251s.56-16.94,10.78-8.91,35.46,27.35,36.64,27.59S169.88,264.65,169.88,264.65Z" style="fill:#7E57C2"></path><path d="M160.62,289.9c.21-4.87.47-9.75.5-14.63,0-2.77,0-5.55,0-8.32,0-.1-.18-.12-.19,0-.41,4.88-.81,9.78-1,14.68s-.41,9.75-.54,14.63c-.06,2.77,0,5.54.05,8.31a.05.05,0,0,0,.1,0C160.17,299.7,160.4,294.81,160.62,289.9Z" style="fill:#263238"></path><path d="M144.32,304.7c-7.91-.74-15.49-1.93-18.6-3.86C118,296.09,98,266.12,90.35,251c-3.73-7.37-3.68-11.58-1.47-13C105.69,257.67,129.77,287.33,144.32,304.7Z" style="opacity:0.1"></path><path d="M125.24,311.12l-16.31,8.53-4.66-3.23-5.55,6.22-47.88,7.3c-.2-1.55,1.45-68.17,20.71-91.58,4-4.89,10.27-7.93,17.06-2.64C102.57,246.59,126.08,310,125.24,311.12Z" style="fill:#7E57C2"></path><path d="M91.18,253.32c5.95,17.82,9.38,36.53,12.09,55.1l1,8c-3.59-20.92-7.37-42.69-13.09-63.1Z" style="fill:#263238"></path><path d="M91.44,263A1.22,1.22,0,0,1,89,263a1.22,1.22,0,0,1,2.43,0Zm0,0a1,1,0,0,0-1.93,0,1,1,0,0,0,1.93,0Z" style="fill:#263238"></path><path d="M94.7,275.49a1.22,1.22,0,0,1-2.43,0,1.22,1.22,0,0,1,2.43,0Zm0,0a1,1,0,0,0-1.93,0,1,1,0,0,0,1.93,0Z" style="fill:#263238"></path><path d="M97.32,288.09a1.22,1.22,0,0,1-2.43,0,1.22,1.22,0,0,1,2.43,0Zm0,0a1,1,0,0,0-1.93,0,1,1,0,0,0,1.93,0Z" style="fill:#263238"></path><path d="M99.68,300.83a1.21,1.21,0,0,1-2.42,0,1.21,1.21,0,0,1,2.42,0Zm0,0a1,1,0,0,0-1.92,0,1,1,0,0,0,1.92,0Z" style="fill:#263238"></path><path d="M102.11,313.24a1.22,1.22,0,0,1-2.43,0,1.22,1.22,0,0,1,2.43,0Zm0,0a1,1,0,0,0-1.93,0,1,1,0,0,0,1.93,0Z" style="fill:#263238"></path><path d="M75.6,436c.77-3,46.65-74.18,50.11-75.79,1.31-.62,3.82-2.82,16.6,4.89l25.06-24.16L184.5,388.7l-63.38,30.62s-29.75,19.39-33.74,20.74S74.83,439,75.6,436Z" style="fill:#eb9481"></path><path d="M75.6,436c.77-3,46.65-74.18,50.11-75.79,1.31-.62,3.82-2.82,16.6,4.89l25.06-24.16L184.5,388.7l-63.38,30.62s-29.75,19.39-33.74,20.74S74.83,439,75.6,436Z" style="fill:#ad6359"></path><path d="M146.94,406.85l-25.82,12.47S91.37,438.7,87.38,440.06,74.83,439,75.61,436s46.64-74.19,50.1-75.8c1.31-.62,3.81-2.82,16.6,4.89l2.65-2.56Z" style="fill:#7E57C2"></path><path d="M146.94,406.85l-25.82,12.47S91.37,438.7,87.38,440.06,74.83,439,75.61,436s46.64-74.19,50.1-75.8c1.31-.62,3.81-2.82,16.6,4.89l2.65-2.56Z" style="fill:#fff;opacity:0.6000000000000001"></path><path d="M141.16,407.3a15.51,15.51,0,0,1,2.21-2.74,15.2,15.2,0,0,1,2.71-2.26,15.58,15.58,0,0,1-2.21,2.75A16,16,0,0,1,141.16,407.3Z" style="fill:#263238"></path><path d="M140.89,402.71a15.53,15.53,0,0,1,2.2-2.75,16,16,0,0,1,2.71-2.25,15.53,15.53,0,0,1-2.2,2.75A16.36,16.36,0,0,1,140.89,402.71Z" style="fill:#263238"></path><path d="M140.61,398.11a16.37,16.37,0,0,1,2.21-2.74,15.08,15.08,0,0,1,2.71-2.25,15.88,15.88,0,0,1-2.21,2.74A14.74,14.74,0,0,1,140.61,398.11Z" style="fill:#263238"></path><path d="M140.34,393.52a15.51,15.51,0,0,1,2.21-2.74,15.2,15.2,0,0,1,2.71-2.26,17.57,17.57,0,0,1-4.92,5Z" style="fill:#263238"></path><path d="M140.07,388.93a15.53,15.53,0,0,1,2.2-2.75,16,16,0,0,1,2.71-2.25,15.53,15.53,0,0,1-2.2,2.75A16.36,16.36,0,0,1,140.07,388.93Z" style="fill:#263238"></path><path d="M139.79,384.33a16.37,16.37,0,0,1,2.21-2.74,15.08,15.08,0,0,1,2.71-2.25,15.88,15.88,0,0,1-2.21,2.74A14.74,14.74,0,0,1,139.79,384.33Z" style="fill:#263238"></path><path d="M139.52,379.74a17.71,17.71,0,0,1,4.91-5,15.53,15.53,0,0,1-2.2,2.75A16,16,0,0,1,139.52,379.74Z" style="fill:#263238"></path><path d="M139.25,375.15a15.53,15.53,0,0,1,2.2-2.75,16,16,0,0,1,2.71-2.25,15.53,15.53,0,0,1-2.2,2.75A16.36,16.36,0,0,1,139.25,375.15Z" style="fill:#263238"></path><path d="M139,370.55a16.37,16.37,0,0,1,2.21-2.74,15.08,15.08,0,0,1,2.71-2.25,15.88,15.88,0,0,1-2.21,2.74A15.08,15.08,0,0,1,139,370.55Z" style="fill:#263238"></path><path d="M268.29,331.76c-6.91,22.19-114.72,77.71-114.72,77.71l-21.39-57.06,49.57-24L73.83,317.8l53.73-23s10.58,3.9,18.13,1.32C149,295,220.78,281.58,235,284.41,266.35,290.66,274.62,311.4,268.29,331.76Z" style="fill:#7E57C2"></path><path d="M268.29,331.76c-6.91,22.19-114.72,77.71-114.72,77.71l-21.39-57.06,49.57-24L73.83,317.8l53.73-23s10.58,3.9,18.13,1.32C149,295,220.78,281.58,235,284.41,266.35,290.66,274.62,311.4,268.29,331.76Z" style="opacity:0.2"></path><path d="M171.3,293.88a3.06,3.06,0,1,1-6.11,0,3,3,0,0,1,.49-1.65l4.4-.78A3,3,0,0,1,171.3,293.88Zm23.81,3.06a3.06,3.06,0,1,0-3.06-3.06A3.06,3.06,0,0,0,195.11,296.94Zm26.86,0a3.06,3.06,0,1,0-3.06-3.06A3.06,3.06,0,0,0,222,296.94Zm26.86,0a3.06,3.06,0,1,0-3.06-3.06A3.05,3.05,0,0,0,248.83,296.94Zm-77.54,36.57-5,2.43a3,3,0,0,0,2,.74,3.06,3.06,0,0,0,3.05-3.06A.41.41,0,0,0,171.29,333.51Zm23.82,3.17a3.06,3.06,0,1,0-3.06-3.06A3.06,3.06,0,0,0,195.11,336.68Zm26.86,0a3.06,3.06,0,1,0-3.06-3.06A3.06,3.06,0,0,0,222,336.68Zm26.86,0a3.06,3.06,0,1,0-3.06-3.06A3.05,3.05,0,0,0,248.83,336.68Zm-174.62-19h0a3,3,0,0,0,2.21-1Zm26.88,0a3.06,3.06,0,1,0-3-3.06A3.06,3.06,0,0,0,101.09,317.64Zm26.87,0a3.06,3.06,0,1,0-3.06-3.06A3.06,3.06,0,0,0,128,317.64Zm26.86,0a3.06,3.06,0,1,0-3.06-3.06A3.06,3.06,0,0,0,154.82,317.64Zm26.86,0a3.06,3.06,0,1,0-3.06-3.06A3.06,3.06,0,0,0,181.68,317.64Zm26.86,0a3.06,3.06,0,1,0-3.06-3.06A3.06,3.06,0,0,0,208.54,317.64Zm26.86,0a3.06,3.06,0,1,0-3.06-3.06A3.05,3.05,0,0,0,235.4,317.64Zm26.86,0a3.06,3.06,0,1,0-3.06-3.06A3.05,3.05,0,0,0,262.26,317.64ZM141.39,370.31a3,3,0,0,0-2.16.89l2,5.21h.21a3.06,3.06,0,0,0,0-6.11Zm26.86,6.11a3.06,3.06,0,1,0-3.06-3.06A3.06,3.06,0,0,0,168.25,376.42Zm26.86,0a3.06,3.06,0,1,0-3.06-3.06A3.06,3.06,0,0,0,195.11,376.42ZM222,370.31a3,3,0,0,0-2.89,2.08l3.27-2.05A2.34,2.34,0,0,0,222,370.31Zm-67.15-12.93a3.06,3.06,0,1,0-3.06-3.06A3.06,3.06,0,0,0,154.82,357.38Zm26.86,0a3.06,3.06,0,1,0-3.06-3.06A3.06,3.06,0,0,0,181.68,357.38Zm26.86,0a3.06,3.06,0,1,0-3.06-3.06A3.06,3.06,0,0,0,208.54,357.38Zm26.86,0a3.06,3.06,0,1,0-3.06-3.06A3.05,3.05,0,0,0,235.4,357.38Zm-80.58,39.73a3.06,3.06,0,1,0-3.06-3.05A3,3,0,0,0,154.82,397.11Zm26.86-6.1a3.05,3.05,0,0,0-3.06,3.05,3,3,0,0,0,.5,1.67l5.32-3A3,3,0,0,0,181.68,391Z" style="fill:#7E57C2"></path><path d="M206.34,314a56,56,0,0,0-6.08,3.33c-2.11,1.19-4.22,2.34-6.32,3.53l-.06,0c.46-.41.91-.83,1.38-1.23,1.6-1.39,3.06-2.91,4.78-4.16.11-.07,0-.23-.11-.16-1.75,1.22-3.62,2.29-5.26,3.66-.77.65-1.52,1.31-2.25,2-.4.38-.8.76-1.19,1.15-.17.18-.38.37-.54.57-.95.56-1.9,1.13-2.83,1.71-2.08,1.31-4.05,2.78-6.14,4.06-.11.07,0,.23.12.16,2-1.16,4.22-2.14,6.29-3.28s4.16-2.4,6.21-3.67,4-2.49,6-3.72a57.32,57.32,0,0,0,6.09-3.85C206.47,314.12,206.42,314,206.34,314Z" style="fill:#263238"></path><path d="M159,395.28q-.83-2.44-1.68-4.87c-1.14-3.23-2.27-6.47-3.43-9.7-2.31-6.42-4.61-12.84-7.06-19.21-1.39-3.6-2.76-7.22-4.31-10.76a.17.17,0,0,0-.32.12c2,6.56,4.36,13,6.72,19.45s4.76,12.79,7.2,19.16c.68,1.79,1.36,3.57,2.07,5.35s1.53,3.6,2.23,5.41a.07.07,0,0,0,.14-.05C160,398.56,159.53,396.9,159,395.28Z" style="fill:#263238"></path><path d="M374.77,366.38c-2.33,2.08-80.1,35.56-83.87,35-1.43-.22-4.74.22-11-13.32-1.36-2.92-55.59-20.55-55.59-20.55l47.16-31.56,56.28,18.91s35.51.5,39.57,1.6S377.09,364.3,374.77,366.38Z" style="fill:#ad6359"></path><path d="M374.77,366.38c-2.33,2.09-80.09,35.56-83.87,35-1.43-.22-4.74.22-11-13.32-.38-.8-5.21-2.35-12.05-4.19l49.05-32.67,10.85,3.65s35.51.52,39.57,1.6S377.09,364.31,374.77,366.38Z" style="fill:#7E57C2"></path><path d="M374.77,366.38c-2.33,2.09-80.09,35.56-83.87,35-1.43-.22-4.74.22-11-13.32-.38-.8-5.21-2.35-12.05-4.19l49.05-32.67,10.85,3.65s35.51.52,39.57,1.6S377.09,364.31,374.77,366.38Z" style="fill:#fff;opacity:0.6000000000000001"></path><path d="M271.68,383.16a14.83,14.83,0,0,1,3.47.6,15.33,15.33,0,0,1,3.29,1.27,14.83,14.83,0,0,1-3.47-.6A15.33,15.33,0,0,1,271.68,383.16Z" style="fill:#263238"></path><path d="M275.57,380.69a16.05,16.05,0,0,1,3.47.6,15.49,15.49,0,0,1,3.28,1.28,16.05,16.05,0,0,1-3.47-.6A15.49,15.49,0,0,1,275.57,380.69Z" style="fill:#263238"></path><path d="M279.45,378.23a14.83,14.83,0,0,1,3.47.6,15.33,15.33,0,0,1,3.29,1.27,14.83,14.83,0,0,1-3.47-.6A15.53,15.53,0,0,1,279.45,378.23Z" style="fill:#263238"></path><path d="M283.34,375.76a16.05,16.05,0,0,1,3.47.6,15.49,15.49,0,0,1,3.28,1.28,16.05,16.05,0,0,1-3.47-.6A15.49,15.49,0,0,1,283.34,375.76Z" style="fill:#263238"></path><path d="M287.22,373.3a15,15,0,0,1,3.48.6,15.45,15.45,0,0,1,3.28,1.27,14.92,14.92,0,0,1-3.47-.6A15.53,15.53,0,0,1,287.22,373.3Z" style="fill:#263238"></path><path d="M291.11,370.83a16.05,16.05,0,0,1,3.47.6,15.49,15.49,0,0,1,3.28,1.28,17.56,17.56,0,0,1-6.75-1.88Z" style="fill:#263238"></path><path d="M295,368.37a15.46,15.46,0,0,1,3.47.59,16,16,0,0,1,3.28,1.28,14.92,14.92,0,0,1-3.47-.6A15.45,15.45,0,0,1,295,368.37Z" style="fill:#263238"></path><path d="M298.88,365.9a16.05,16.05,0,0,1,3.47.6,15.57,15.57,0,0,1,3.29,1.28,17.54,17.54,0,0,1-6.76-1.88Z" style="fill:#263238"></path><path d="M302.77,363.44a15.46,15.46,0,0,1,3.47.59,16,16,0,0,1,3.28,1.28,14.92,14.92,0,0,1-3.47-.6A15.45,15.45,0,0,1,302.77,363.44Z" style="fill:#263238"></path><path d="M306.65,361a16.05,16.05,0,0,1,3.47.6,15.36,15.36,0,0,1,3.29,1.28,17.54,17.54,0,0,1-6.76-1.88Z" style="fill:#263238"></path><path d="M310.54,358.51a15.46,15.46,0,0,1,3.47.59,16,16,0,0,1,3.28,1.28,14.92,14.92,0,0,1-3.47-.6A16,16,0,0,1,310.54,358.51Z" style="fill:#263238"></path><path d="M314.42,356a16,16,0,0,1,3.47.6,14.86,14.86,0,0,1,3.29,1.28,17.67,17.67,0,0,1-6.76-1.88Z" style="fill:#263238"></path><path d="M318.31,353.58a15.46,15.46,0,0,1,3.47.59,16,16,0,0,1,3.28,1.28,14.92,14.92,0,0,1-3.47-.6A16,16,0,0,1,318.31,353.58Z" style="fill:#263238"></path><path d="M306.83,345.89,254,381.35,150.51,348.49S130.33,365.71,108,371c-15.16,3.6-37.62.54-46.42-14.81-9.08-15.86-8.36-27-8.36-27l17.14-8.8s39.84-31.44,65.52-35.35C175.09,279.11,306.83,345.89,306.83,345.89Z" style="fill:#7E57C2"></path><path d="M306.83,345.89,254,381.35,150.51,348.49S130.33,365.71,108,371c-15.16,3.6-37.62.54-46.42-14.81-9.08-15.86-8.36-27-8.36-27l17.14-8.8s39.84-31.44,65.52-35.35C175.09,279.11,306.83,345.89,306.83,345.89Z" style="opacity:0.2"></path><path d="M117.58,293.88a3.06,3.06,0,0,1-6.11,0c1.65-.84,3.31-1.64,5-2.4A3,3,0,0,1,117.58,293.88Z" style="fill:#7E57C2"></path><path d="M138.33,293.88a3.06,3.06,0,1,1,3.06,3.06A3.06,3.06,0,0,1,138.33,293.88Z" style="fill:#7E57C2"></path><path d="M165.19,293.88a3.06,3.06,0,1,1,3.06,3.06A3.06,3.06,0,0,1,165.19,293.88Z" style="fill:#7E57C2"></path><circle cx="60.8" cy="333.62" r="3.05" style="fill:#7E57C2"></circle><path d="M84.61,333.62a3.06,3.06,0,1,1,3,3.06A3.06,3.06,0,0,1,84.61,333.62Z" style="fill:#7E57C2"></path><circle cx="114.53" cy="333.62" r="3.05" style="fill:#7E57C2"></circle><path d="M138.33,333.62a3.06,3.06,0,1,1,3.06,3.06A3.06,3.06,0,0,1,138.33,333.62Z" style="fill:#7E57C2"></path><circle cx="168.25" cy="333.62" r="3.05" style="fill:#7E57C2"></circle><circle cx="195.11" cy="333.62" r="3.05" style="fill:#7E57C2"></circle><path d="M218.91,333.62a3.06,3.06,0,1,1,3.06,3.06A3.06,3.06,0,0,1,218.91,333.62Z" style="fill:#7E57C2"></path><circle cx="248.83" cy="333.62" r="3.05" style="fill:#7E57C2"></circle><path d="M278.74,333.62a3.06,3.06,0,1,1-3.59-3l3.18,1.48A3,3,0,0,1,278.74,333.62Z" style="fill:#7E57C2"></path><path d="M77.19,315.32a3,3,0,0,1-3,2.32h-.18Z" style="fill:#7E57C2"></path><circle cx="101.09" cy="314.58" r="3.05" style="fill:#7E57C2"></circle><circle cx="127.96" cy="314.58" r="3.05" style="fill:#7E57C2"></circle><path d="M151.76,314.58a3.06,3.06,0,1,1,3.06,3.06A3.05,3.05,0,0,1,151.76,314.58Z" style="fill:#7E57C2"></path><circle cx="181.68" cy="314.58" r="3.05" style="fill:#7E57C2"></circle><path d="M205.48,314.58a3.06,3.06,0,1,1,3.06,3.06A3.05,3.05,0,0,1,205.48,314.58Z" style="fill:#7E57C2"></path><path d="M238.45,314.58a3.06,3.06,0,1,1-4.93-2.41l4.91,2.08C238.44,314.36,238.45,314.47,238.45,314.58Z" style="fill:#7E57C2"></path><path d="M90.43,372.09c-1.69-.17-3.39-.41-5.06-.74a3,3,0,0,1,5.06.74Z" style="fill:#7E57C2"></path><path d="M224.72,372.06l-4.25-1.35a2.92,2.92,0,0,1,1.5-.4A3,3,0,0,1,224.72,372.06Z" style="fill:#7E57C2"></path><circle cx="248.83" cy="373.36" r="3.05" style="fill:#7E57C2"></circle><path d="M71.18,354.32a3.06,3.06,0,1,1,3,3.06A3,3,0,0,1,71.18,354.32Z" style="fill:#7E57C2"></path><circle cx="101.09" cy="354.32" r="3.05" style="fill:#7E57C2"></circle><circle cx="127.96" cy="354.32" r="3.05" style="fill:#7E57C2"></circle><circle cx="181.68" cy="354.32" r="3.05" style="fill:#7E57C2"></circle><path d="M205.48,354.32a3.06,3.06,0,1,1,3.06,3.06A3.05,3.05,0,0,1,205.48,354.32Z" style="fill:#7E57C2"></path><circle cx="235.4" cy="354.32" r="3.05" style="fill:#7E57C2"></circle><circle cx="262.26" cy="354.32" r="3.05" style="fill:#7E57C2"></circle><path d="M292.17,354.32a3.09,3.09,0,0,1-.58,1.8h0l-1.74,1.17a2.84,2.84,0,0,1-.72.09,3.06,3.06,0,1,1,3.05-3.06Z" style="fill:#7E57C2"></path><path d="M85.3,309.49c-2.43,1.62-4.78,3.34-7.18,5s-4.79,3.16-7,4.95-4.46,3.76-6.62,5.73c-1,.95-2.07,1.9-3.08,2.89a26.63,26.63,0,0,0-2.94,3.07c-.08.1.07.23.17.17a30.75,30.75,0,0,0,3.26-2.55q1.71-1.38,3.4-2.78c2.2-1.78,4.43-3.52,6.61-5.31s4.19-3.74,6.34-5.54,4.73-3.72,7.12-5.55C85.39,309.54,85.35,309.46,85.3,309.49Z" style="fill:#263238"></path><path d="M150.51,348.49A127.87,127.87,0,0,1,135.67,359L110.2,330Z" style="fill:#263238"></path><path d="M290.12,341.52c-1.57.91-3.08,1.94-4.6,2.93s-3,1.95-4.49,2.94c-3.06,2-6.07,4.09-9.09,6.16-6.06,4.14-12.07,8.36-18.08,12.57-3.37,2.36-6.69,4.78-10,7.16-.06,0,0,.14.08.1q9.16-5.89,18.25-11.92T280.32,349c1.66-1.18,3.3-2.38,4.94-3.59s3.37-2.43,5-3.74A.08.08,0,0,0,290.12,341.52Z" style="fill:#263238"></path><path d="M277.89,331.84c-1.55-1-33.82-16.35-40.73-19.42s-13.88-6-20.91-8.76-14.12-5.33-21.3-7.61-14.3-4.33-21.59-5.86c-.94-.2-1.87-.4-2.8-.62-.08,0-.1.12,0,.14,3.7.87,7.34,2,11,3.09s7.16,2.2,10.71,3.38c7.11,2.37,14.15,5,21.13,7.71s13.85,5.68,20.69,8.73,13.72,6.23,20.53,9.46c3.4,1.61,22.25,9.76,23.13,10.05C277.89,332.19,278.06,332,277.89,331.84Z" style="fill:#263238"></path><path d="M221,370.89c-4.11-1.33-8.27-2.53-12.41-3.77s-53.41-17.59-58.17-18.54c-.1,0-.16.11-.06.15,4.06,1.44,25.85,9.36,33.93,12.17,8.39,2.93,31.87,9.18,36.61,10.27C221.07,371.21,221.18,371,221,370.89Z" style="fill:#263238"></path><path d="M143.57,263S159.4,255.75,159.4,246s-20.53-16.07-20.53-23.71,8.95-12.13,8.95-12.13-14.14,4.83-14.14,14.49,13.54,16.21,14.83,22.36C150.31,255.53,143.57,263,143.57,263Z" style="fill:#dbdbdb;opacity:0.6000000000000001"></path><path d="M144.36,263s-15.83-5.73-15.84-13.41S149.05,237,149.05,231s-9-9.54-9-9.54,14.14,3.79,14.14,11.39-15.54,12.82-16.65,19S144.36,263,144.36,263Z" style="fill:#dbdbdb;opacity:0.6000000000000001"></path><rect x="136.22" y="287.62" width="15.06" height="2.35" style="fill:#dbdbdb"></rect><rect x="136.22" y="287.62" width="15.06" height="1.55" style="fill:#c7c7c7"></rect><path d="M118.34,281.31a8.53,8.53,0,0,0,8.48,3.62,7.52,7.52,0,0,0,1.53-.44,10.43,10.43,0,0,0,2.13-1.12l-1.92-2.83a6.2,6.2,0,0,1-1.13.64,5,5,0,0,1-6.3-1.85c-2.06-2.9-2.8-9.52-.71-12.07.14-.19.74-.49,3.17,0,.44.1,1,.21,1.53.37a6.5,6.5,0,0,0,1.37.3l.06-1.71.17-1.69c-.16,0-.4-.1-.72-.19a21.26,21.26,0,0,0-3.42-.71c-1.79-.19-3.66,0-4.8,1.44C114.38,269.26,115.76,277.67,118.34,281.31Z" style="fill:#dbdbdb"></path><path d="M128.56,280.54a6.2,6.2,0,0,1-1.13.64l.92,3.31a10.43,10.43,0,0,0,2.13-1.12Z" style="fill:#c7c7c7"></path><path d="M122.58,263.66l1,3.63c.44.1,1,.21,1.53.37a6.5,6.5,0,0,0,1.37.3l.06-1.71.17-1.69c-.16,0-.4-.1-.72-.19A21.26,21.26,0,0,0,122.58,263.66Z" style="fill:#c7c7c7"></path><path d="M163.77,259.21S162,274.56,158.84,281s-7.47,7.18-10.17,7.18h-9.85c-2.7,0-7.06-.72-10.18-7.18s-4.93-21.8-4.93-21.8Z" style="fill:#dbdbdb"></path><path d="M63.22,247.94c-17.2,27-30.73,68.9-19.71,75.32,10.77,6.28,45.25-8,57.11-18.7,2.84-2.55-13.35-28.32-16.74-26.06-4.73,3.16-13.24,8.86-13.73,8.92-1.05.13,4.39-25.82,5.56-38.61C77.36,231,69.68,237.8,63.22,247.94Z" style="fill:#ad6359"></path><path d="M51.6,307.22a29.88,29.88,0,0,1,2.63-4.72,35.16,35.16,0,0,1,3.16-4.32,58.78,58.78,0,0,1,13-10.93c.06,0,.11,0,0,.08a152.18,152.18,0,0,0-12,10.83c-1.18,1.31-2.24,2.73-3.29,4.15-.6.81-1.18,1.63-1.74,2.47s-1.06,1.71-1.64,2.53C51.71,307.39,51.56,307.32,51.6,307.22Z" style="fill:#263238"></path><path d="M82.66,279.39s10-7.32,16.8-11.79c3.78-2.5,10.65-6.2,14.26-6.77,5.42-.84,28.59-.91,28.72,4.7.13,5.09-7.67,3.85-7.67,3.85s8.65.55,7.23,5.63-11.45,2.54-11.45,2.54,9.23-.06,7.19,5.22c-1.77,4.58-13.61,2.84-13.61,2.84s9.67-1.12,8.32,3.76c-1.5,5.38-19.58,5-19.58,5-7.38,11.31-14.27,14.52-19.35,15.15C92.11,309.71,82.66,279.39,82.66,279.39Z" style="fill:#ad6359"></path><path d="M133.32,277.84l-2.39-.49a39,39,0,0,0-4.68-.78c-1.53-.14-3.07-.21-4.61-.24s-3.27.12-4.9.05a.09.09,0,1,0,0,.18,40.73,40.73,0,0,1,4.81.43c1.57.17,3.13.36,4.7.55s3.06.27,4.59.41c.77.08,1.53.18,2.29.29a13.36,13.36,0,0,0,2.18.25c.07,0,.08-.1,0-.13A10.8,10.8,0,0,0,133.32,277.84Z" style="fill:#263238"></path><path d="M136.57,269.53a64.76,64.76,0,0,0-8.64-1.65,44.07,44.07,0,0,0-8.82-.07.09.09,0,0,0,0,.18c2.93.32,5.87.6,8.8.88,1.43.14,7.93,1,8.62,1C136.69,269.84,136.71,269.59,136.57,269.53Z" style="fill:#263238"></path><path d="M130.46,285.73a62.13,62.13,0,0,0-8.15-1.4,56.37,56.37,0,0,0-8.45.51.09.09,0,0,0,0,.18c2.81,0,5.62,0,8.44.22,1.37.09,6.81.75,8.13.72C130.55,286,130.57,285.77,130.46,285.73Z" style="fill:#263238"></path><path d="M77.46,279.32l21.26,29.05s-18.5,12.31-34.7,18c-8,2.83-16.44,1.78-20.78-1.38-13.12-9.56,8.4-61.43,18.18-75.86s17-18.22,14.63,4-4.43,31.53-4.43,31.53Z" style="fill:#7E57C2"></path><path d="M92.7,309.71c-.6-.85-1.13-1.73-1.75-2.57s-1.2-1.61-1.81-2.41l-3.79-4.83c-2.53-3.21-5.09-6.41-7.73-9.54-.75-.89-1.51-1.77-2.25-2.66a23,23,0,0,0-2.24-2.48c-.06-.05-.13,0-.09.09a21.92,21.92,0,0,0,1.77,2.55l1.81,2.41c1.22,1.64,2.47,3.26,3.73,4.87,2.48,3.17,5,6.33,7.53,9.45.74.91,1.48,1.8,2.23,2.68s1.59,1.72,2.37,2.59C92.59,310,92.8,309.85,92.7,309.71Z" style="fill:#263238"></path><path d="M53,304.59a29.39,29.39,0,0,1,2.62-4.72,35.23,35.23,0,0,1,3.17-4.32,58.77,58.77,0,0,1,12.94-10.93c.06,0,.11,0,.05.08a152.09,152.09,0,0,0-11.94,10.82,52.54,52.54,0,0,0-3.29,4.15c-.6.81-1.19,1.63-1.74,2.47s-1.06,1.71-1.65,2.53A.09.09,0,0,1,53,304.59Z" style="fill:#263238"></path><path d="M78.32,280.16a4.62,4.62,0,0,0-.93-1.17,65.57,65.57,0,0,0-5.56,5.36c.38-1.46.71-3.06,1-4.54s.58-3.27.86-4.9c.43-2.6.85-5.22,1.18-7.85.48-1.36.88-2.75,1.28-4.13,0-.05-.07-.08-.09,0-.36,1-.72,1.93-1.05,2.91l.09-.74c.19-1.88.39-3.76.49-5.65a.06.06,0,0,0-.11,0c-1.16,6.5-1.93,13.07-3,19.59-.3,1.84-.9,5.78-.88,5.78s5.56-5.18,5.72-5.27a6.87,6.87,0,0,1,.85.75C78.23,280.34,78.37,280.26,78.32,280.16Z" style="fill:#263238"></path><path d="M96.17,304.51c-.2-.2-.37-.06-.18.17.93,1.18,1.71,2.36,2.57,3.54-4.75,2.75-9.5,5.5-14.35,8.08s-9.94,5.23-15.08,7.51c-12.23,5.45-18.53,3.32-20.08,3.64,0,0,0,.07,0,.09,1.22.29,7.53,2.29,19.12-2.49,5.19-2.15,17.88-8.76,22.8-11.55,2.76-1.57,5.85-3.29,8.48-5.08A34.29,34.29,0,0,0,96.17,304.51Z" style="fill:#263238"></path><path d="M86.67,247c1.6,2.53,4.51,6.31,4.51,6.31a67.74,67.74,0,0,0,1.14-6.78c-.07-1-3.93-1.79-3.93-1.79Z" style="fill:#ad6359"></path><path d="M89.49,249.54c-4.37,1-11.8-5.74-14.71-11.16-.2-.38.4-4.28.91-9,.3-2.9.56-6.13.58-9.1,0-.61,18.58,4.68,18.58,4.68A47.68,47.68,0,0,0,93,236.29a7.64,7.64,0,0,0,.12,1.22q0,.09,0,.21C93.45,240,93.72,248.58,89.49,249.54Z" style="fill:#ad6359"></path><path d="M77.42,220.32c.82,5,3.83,17.17,13.77,17.48a10.53,10.53,0,0,0,1.9-.08.65.65,0,0,0,0-.21A6.62,6.62,0,0,1,93,236.3a47,47,0,0,1,1.9-11.39S81.45,221.09,77.42,220.32Z" style="fill:#263238"></path><path d="M70.28,200.59c-.78,6.86,6.12,25,11.51,28.3,7.81,4.82,18.88,3.37,22.54-5.63,3.54-8.72-5.87-32.17-11.73-35C84,184.06,71.43,190.46,70.28,200.59Z" style="fill:#ad6359"></path><path d="M75.35,217.87c3.34-1.31.32-9.54.32-9.54s4.9-2.61,5.14-10.57c0,0,8,2,13.33-.8,8.28-4.45,4.35-15.8.3-17.07C88.71,178.1,82,185.6,82,185.6s-13.71.56-14.71,10.28a6.79,6.79,0,0,0-3.91,8.39C65,210.59,72.86,218.84,75.35,217.87Z" style="fill:#263238"></path><path d="M74.77,209.71A12.25,12.25,0,0,0,80.18,204a9.12,9.12,0,0,0-.49-8.35c-.09-.12.13-.25.21-.12,1.56,2.71,2.36,5.75,1.3,8.8A8.48,8.48,0,0,1,74.87,210C74.73,210,74.63,209.79,74.77,209.71Z" style="fill:#263238"></path><path d="M61.71,200.78c1-2.76,3.55-4,6.2-4.71a.12.12,0,0,1,.06.24c-2.67.53-4.7,3.09-5.36,5.63s.49,5,1.76,7.1a19.2,19.2,0,0,0,10.81,8.53.06.06,0,0,1,0,.12,19.25,19.25,0,0,1-12-9.28C61.88,206.16,60.77,203.32,61.71,200.78Z" style="fill:#263238"></path><path d="M81.74,186.12a9.07,9.07,0,0,1,3.63-5.26,10.79,10.79,0,0,1,7.55-1.62,6.09,6.09,0,0,1,4.64,4,10.78,10.78,0,0,1-.2,7.24c0,.06-.12,0-.11,0a10.7,10.7,0,0,0-.11-6.48,5.61,5.61,0,0,0-4.67-3.71c-4.13-.44-9.32,1.53-10.5,6C81.93,186.34,81.7,186.27,81.74,186.12Z" style="fill:#263238"></path><path d="M77.11,215.13S71.65,210,69.22,212s2.55,10.17,6,10.71a3.35,3.35,0,0,0,4-2.67Z" style="fill:#ad6359"></path><path d="M70.7,214.32s0,.08,0,.09c2.45.45,4.07,2.29,5.34,4.29a1.84,1.84,0,0,0-2.8.06.07.07,0,0,0,.09.11,2,2,0,0,1,2.35.25,9.7,9.7,0,0,1,1.43,1.57c.15.18.49,0,.37-.22l0-.05C76.91,217.54,73.85,214,70.7,214.32Z" style="fill:#263238"></path><path d="M91.36,208.51s-.07.09,0,.14c.47,1.22.81,2.7-.16,3.5,0,0,0,.09,0,.07C92.48,211.54,92,209.59,91.36,208.51Z" style="fill:#263238"></path><path d="M89.81,207.6c-2,.55-.79,4.59,1.1,4.08S91.52,207.14,89.81,207.6Z" style="fill:#263238"></path><path d="M98.3,206.17s.12,0,.13.08c.35,1.26,1,2.65,2.22,2.72,0,0,.06.06,0,.07C99.22,209.27,98.43,207.42,98.3,206.17Z" style="fill:#263238"></path><path d="M99,204.52c2-.78,3.37,3.21,1.55,3.93S97.37,205.17,99,204.52Z" style="fill:#263238"></path><path d="M87.35,206.23a14,14,0,0,0,1.4-1c.54-.4,1-.66,1.23-1.32a.89.89,0,0,0-.45-1,2.25,2.25,0,0,0-2.21.43,3.28,3.28,0,0,0-1.38,1.9A1,1,0,0,0,87.35,206.23Z" style="fill:#263238"></path><path d="M100.28,201.92c-.58.12-1.14.14-1.72.21a2.84,2.84,0,0,1-1.8-.12.89.89,0,0,1-.35-1,2.18,2.18,0,0,1,1.89-1.2,3.21,3.21,0,0,1,2.31.42A1,1,0,0,1,100.28,201.92Z" style="fill:#263238"></path><path d="M92.26,219.31c.29.32.59.76,1.06.82a3.31,3.31,0,0,0,1.42-.25,0,0,0,0,1,.05.07,1.75,1.75,0,0,1-1.69.62,1.38,1.38,0,0,1-1-1.21C92.11,219.29,92.21,219.26,92.26,219.31Z" style="fill:#263238"></path><path d="M93,216.62a4.45,4.45,0,0,0,3.43,1,5.62,5.62,0,0,0,1.55-.4,1.82,1.82,0,0,0,.28-.13l.27-.12a.34.34,0,0,0,.16-.36h0l0-.13h0l0-.1c-.28-1-.82-2.41-.82-2.41.4.07,2.45.32,2.26-.18a66.32,66.32,0,0,0-5.64-12.38.12.12,0,0,0-.22.1c1.33,4,3.34,7.72,4.73,11.71a7.68,7.68,0,0,0-2.2,0c-.12.08,1.11,2.76,1.2,3.2v0a6.16,6.16,0,0,1-4.83,0C93,216.43,92.92,216.55,93,216.62Z" style="fill:#263238"></path><polygon points="91.17 253.32 87.92 245.28 75.02 235.07 70.17 240.55 84.94 253.46 86.73 249.54 91.17 253.32" style="fill:#7E57C2"></polygon><polygon points="91.17 253.32 87.92 245.28 75.02 235.07 70.17 240.55 84.94 253.46 86.73 249.54 91.17 253.32" style="fill:#fff;opacity:0.4"></polygon><polygon points="86.73 249.54 87.48 247.76 91.17 253.32 86.73 249.54" style="opacity:0.1"></polygon><polygon points="91.17 253.32 91.62 244.04 93.07 237.51 96.05 240.99 94.83 250.08 92.72 247.52 91.17 253.32" style="fill:#7E57C2"></polygon><polygon points="91.17 253.32 91.62 244.04 93.07 237.51 96.05 240.99 94.83 250.08 92.72 247.52 91.17 253.32" style="fill:#fff;opacity:0.4"></polygon><polygon points="92.72 247.52 92.34 247.05 91.17 253.32 92.72 247.52" style="opacity:0.1"></polygon></g></svg>
